<svg id="SvgjsSvg1001" width="288" height="288" xmlns="http://www.w3.org/2000/svg" version="1.1" xmlns:xlink="http://www.w3.org/1999/xlink" xmlns:svgjs="http://svgjs.com/svgjs"><defs id="SvgjsDefs1002"></defs><g id="SvgjsG1008" transform="matrix(1,0,0,1,0,0)"><svg xmlns="http://www.w3.org/2000/svg" width="288" height="288" version="1.0" viewBox="0 0 300 300"><g transform="matrix(.1 0 0 -.1 0 300)" fill="#ffffff" class="color000 svgShape"><path d="M1949 2561 c-96 -62 -216 -172 -256 -234 -22 -35 -27 -38 -55 -32-17 4 -61 6 -97 5 -105 -3 -113 -3 -179 0 -69 3 -62 -2 -147 116 -25 35 -100
105 -128 121 -12 7 -43 12 -68 13 -80 0 -100 -42 -105 -225 l-4 -130 -32 -5
c-47 -8 -56 -30 -35 -89 l17 -50 -55 -82 c-30 -44 -55 -85 -55 -90 0 -18 -106
-113 -147 -131 -52 -23 -61 -39 -39 -72 19 -30 75 -49 127 -44 36 3 39 1 40
-22 1 -14 3 -43 5 -65 1 -22 5 -82 8 -132 4 -51 10 -103 15 -117 12 -30 -19
-158 -39 -164 -24 -7 -50 -34 -50 -50 0 -8 12 -31 27 -51 18 -23 33 -63 44
-116 15 -67 23 -84 50 -107 45 -38 82 -44 128 -20 22 12 48 18 64 15 l26 -5
-18 -42 c-11 -22 -26 -59 -36 -81 l-17 -40 -14 25 c-12 23 -13 24 -14 4 0 -47
-71 -104 -128 -104 -32 0 -91 39 -60 40 22 0 58 60 58 96 0 33 -11 51 -69 112
-53 55 -66 103 -46 168 8 27 15 56 15 64 0 27 -28 -25 -41 -74 -17 -67 0 -114
67 -187 30 -32 54 -68 54 -78 0 -37 -19 -70 -45 -77 -59 -15 -4 -84 67 -84 43
0 84 17 112 49 23 25 36 19 36 -18 0 -45 20 -91 40 -91 18 0 55 25 106 73 25
23 37 27 55 21 13 -4 29 -8 34 -9 6 -1 18 -5 28 -9 13 -6 25 -2 42 14 21 20
27 21 58 11 18 -6 51 -12 73 -13 21 0 47 -7 56 -16 27 -23 159 -9 222 24 43
22 51 23 58 9 15 -26 60 -42 142 -49 69 -5 85 -3 124 16 25 11 47 29 50 40 3
12 14 18 33 18 22 0 29 5 29 20 0 27 6 25 48 -11 34 -30 39 -31 103 -27 51 4
75 11 98 29 37 30 38 35 6 43 -16 4 -32 20 -42 41 -26 55 -6 87 95 152 97 63
127 92 153 148 34 73 16 183 -46 285 -12 19 -44 82 -72 140 -53 109 -54 113
-108 428 -31 181 -52 227 -121 262 l-51 25 -6 125 c-3 69 -13 159 -21 200 -26
120 -78 148 -167 91z m92 9 c29 -16 46 -58 59 -148 13 -84 9 -345 -5 -389 -9
-29 -25 -30 -25 -2 0 22 -26 54 -45 54 -7 0 -33 23 -59 51 l-46 52 28 7 c37 9
90 50 113 89 14 23 19 48 18 96 l-2 65 -7 -60 c-10 -91 -34 -126 -114 -167
l-38 -20 -37 34 c-20 18 -40 36 -45 40 -10 8 37 71 70 93 14 9 34 17 45 18 24
2 25 17 1 17 -23 0 -80 -42 -105 -77 l-19 -28 5 67 c5 70 -7 84 -19 22 -5 -27
-9 -32 -16 -22 -7 9 -8 7 -3 -7 4 -11 9 -31 11 -44 3 -13 9 -32 14 -42 6 -10
10 -29 10 -44 0 -30 33 -100 63 -132 49 -54 -39 0 -93 57 -14 15 -60 39 -104
53 -58 20 -56 19 -56 9 0 -5 17 -14 38 -20 51 -16 159 -88 180 -121 9 -14 27
-39 40 -55 20 -25 23 -36 17 -74 -4 -25 -9 -50 -11 -57 -3 -7 11 -19 34 -28
37 -15 40 -19 53 -79 21 -93 18 -325 -4 -408 -21 -77 -71 -191 -106 -240 -34
-47 -88 -96 -134 -120 -62 -33 -69 -27 -36 33 28 52 89 225 89 253 0 7 7 34
16 59 8 26 14 56 12 68 -3 16 -7 10 -17 -23 -7 -25 -23 -65 -37 -89 -13 -24
-21 -47 -18 -52 11 -18 -16 -123 -38 -146 -35 -37 -103 -62 -238 -88 -69 -13
-126 -23 -126 -22 -1 1 3 27 9 58 15 84 9 92 -60 84 -77 -8 -103 -14 -103 -23
0 -4 18 -31 40 -60 24 -32 34 -52 26 -52 -47 0 -209 42 -239 62 -54 35 -77
106 -41 126 14 8 13 10 -2 23 -10 8 -15 9 -11 2 4 -6 3 -15 -3 -18 -12 -8 -70
51 -70 71 0 8 -4 14 -10 14 -5 0 -10 -5 -10 -10 0 -18 45 -80 58 -80 6 0 12
-5 12 -11 0 -5 -4 -8 -9 -5 -5 4 0 -17 12 -45 21 -49 73 -99 104 -99 10 0 43
-59 43 -77 0 -9 -46 10 -93 38 -40 24 -45 26 -35 9 7 -11 21 -23 31 -26 11 -3
16 -12 13 -20 -3 -8 -1 -14 3 -14 5 0 11 5 13 11 2 7 9 5 17 -5 12 -14 9 -16
-33 -16 -38 0 -46 3 -46 19 0 30 -28 88 -45 95 -9 3 -36 6 -59 6 -35 0 -45 4
-55 24 -7 13 -24 29 -37 35 -22 10 -23 12 -9 45 8 20 15 48 15 63 0 24 4 21
28 -27 45 -88 66 -119 84 -123 14 -4 13 0 -6 27 -87 115 -131 260 -130 431 0
84 5 127 22 180 12 38 19 71 17 73 -5 6 -12 -11 -29 -70 -11 -38 -18 -45 -55
-57 -51 -16 -114 -2 -131 29 -9 17 -4 23 41 45 59 30 145 115 174 171 76 149
170 239 320 306 110 49 161 63 225 62 306 -8 314 -9 359 -31 53 -27 64 -24 22
6 -27 20 -29 24 -19 52 12 35 143 158 243 229 39 27 71 49 73 49 2 1 12 -4 23
-9z m-947 -69 c20 -16 70 -69 111 -117 l74 -89 -57 -15 c-31 -9 -73 -25 -92
-36 -19 -10 -39 -19 -45 -20 -15 -1 -73 -36 -107 -63 -16 -13 -31 -21 -34 -19
-2 3 -7 54 -10 114 -7 116 5 211 31 251 23 34 81 32 129 -6z m874 -390 c39
-47 50 -91 22 -91 -9 0 -21 -5 -27 -11 -12 -12 -41 -1 -63 26 -20 24 -3 30 36
12 l36 -17 -44 52 c-24 29 -46 55 -49 58 -11 8 -39 81 -39 99 0 16 48 -32 128
-128z m-1045 39 c5 -19 -26 -70 -43 -70 -6 0 -30 52 -30 66 0 2 15 8 33 13 17
5 33 10 33 10 1 1 4 -8 7 -19z m1286 -68 c40 -29 66 -121 116 -402 31 -173 58
-247 154 -417 82 -147 79 -229 -12 -318 -29 -28 -77 -64 -107 -81 -69 -40 -89
-62 -97 -108 -7 -44 10 -82 46 -101 l25 -13 -32 -16 c-41 -21 -116 -21 -153 1
-37 22 -69 87 -70 144 l-1 44 -14 -60 c-11 -43 -12 -67 -4 -89 13 -37 13 -36
-10 -36 -16 0 -20 7 -20 31 0 42 -14 64 -50 79 -16 7 -30 18 -31 24 0 6 -2 19
-4 29 -11 60 43 136 180 250 50 41 97 87 105 103 23 41 18 111 -12 179 -48
110 -62 174 -63 285 -2 129 -15 271 -26 286 -6 7 -4 16 5 23 17 14 11 37 -15
66 -17 19 -17 24 -3 74 15 49 18 52 42 46 15 -3 38 -14 51 -23z m-160 -43 c12
-35 14 -69 5 -69 -15 0 -33 37 -34 68 0 41 15 41 29 1z m-31 -51 c7 -7 12 -23
12 -37 0 -15 5 -33 10 -41 7 -11 8 -5 4 20 -5 28 -4 33 6 23 13 -12 16 -86 4
-105 -10 -15 -34 20 -34 48 0 13 -11 35 -25 50 -14 15 -25 33 -25 40 0 17 32
18 48 2z m93 -18 c22 -13 25 -38 5 -46 -13 -5 -13 -11 1 -40 20 -40 11 -54
-17 -29 -12 11 -20 31 -20 50 0 17 -6 37 -12 43 -10 10 -10 15 2 22 19 12 17
12 41 0z m-140 -17 c8 -9 9 -14 3 -10 -6 3 -16 -4 -22 -18 -12 -26 -4 -37 36
-49 22 -7 31 -26 12 -26 -6 0 -27 7 -46 15 -35 14 -36 16 -29 52 11 59 21 67
46 36z m29 -49 c0 -16 -26 -19 -35 -4 -3 6 -4 14 0 20 8 13 35 1 35 -16z m128
-120 c0 -20 -3 -22 -15 -12 -17 14 -43 62 -43 79 0 7 13 0 29 -15 16 -15 29
-38 29 -52z m-88 45 c0 -5 4 -8 10 -4 5 3 16 -8 25 -24 8 -16 25 -37 37 -45
20 -14 23 -27 26 -110 5 -109 -15 -214 -53 -286 -22 -41 -25 -43 -31 -23 -3
12 -15 25 -25 28 -18 6 -19 13 -12 73 12 100 9 312 -5 351 -6 18 -9 37 -6 42
7 13 34 11 34 -2z m130 -409 c13 -45 46 -142 59 -170 11 -24 -7 -92 -33 -125
l-24 -30 5 48 c4 33 -1 66 -15 110 -30 93 -35 122 -27 190 8 66 11 64 35 -23z
m-127 -98 c18 -31 18 -33 -2 -74 -20 -40 -104 -108 -117 -95 -3 3 6 27 20 53
35 69 56 122 56 140 0 24 23 11 43 -24z m97 -68 c35 -125 27 -154 -65 -229
-94 -76 -155 -162 -155 -219 0 -31 -3 -37 -12 -28 -7 7 -21 12 -33 12 -11 0
-31 7 -43 16 l-22 15 21 30 c28 39 19 59 -26 59 -31 0 -38 5 -52 35 -9 19 -15
36 -12 38 64 41 112 79 143 114 24 26 48 43 61 43 37 0 113 75 125 123 14 54
32 89 40 80 4 -5 17 -44 30 -89z m-355 16 c-4 -12 -9 -19 -12 -17 -3 3 -2 15
2 27 4 12 9 19 12 17 3 -3 2 -15 -2 -27z m-440 -237 c-11 -61 -34 -54 -91 32
l-34 50 62 10 63 10 3 -34 c2 -20 1 -50 -3 -68z m-552 46 l31 -32 -23 -9 c-13
-4 -21 -11 -18 -14 3 -3 14 -1 25 5 32 17 97 13 114 -6 25 -30 40 -80 40 -135
0 -42 -4 -56 -22 -70 -33 -27 -95 -24 -125 6 -28 28 -60 96 -69 144 -3 19 -15
46 -26 62 -51 71 10 112 73 49z m884 -59 c-23 -27 -27 -29 -36 -13 -8 15 -4
21 22 35 42 21 45 16 14 -22z m-527 -21 c0 -11 -3 -11 -24 -3 -23 9 -20 23 4
17 11 -3 20 -9 20 -14z m456 0 c19 -11 34 -23 34 -26 0 -3 -13 -21 -30 -40
-16 -18 -30 -43 -30 -53 0 -13 -7 -20 -19 -20 -10 0 -34 -6 -52 -14 -47 -20
-90 -22 -118 -7 -13 7 -36 11 -52 9 -25 -4 -29 -1 -29 18 0 13 -9 29 -20 37
-18 12 -18 15 -4 35 8 12 24 22 36 22 20 0 21 -9 3 -52 -5 -13 0 -20 20 -28
31 -12 55 1 55 30 0 28 35 52 72 48 26 -2 33 1 36 17 4 23 29 45 50 45 8 0 30
-9 48 -21z m-109 -13 c-7 -18 -47 -17 -47 0 0 7 10 14 23 16 28 5 31 3 24 -16z
m-226 4 c11 0 12 -31 0 -49 -6 -10 -13 -5 -25 19 -20 41 -20 44 0 36 9 -3 20
-6 25 -6z m-131 -44 c0 -12 -5 -27 -11 -33 -8 -8 -9 -20 -1 -43 10 -28 8 -34
-24 -70 -20 -22 -40 -37 -45 -34 -15 9 -10 98 7 122 9 13 14 32 11 42 -3 14 1
20 17 22 15 2 20 9 18 22 -3 17 -2 18 12 7 9 -8 16 -23 16 -35z m246 6 c-2
-15 -4 -35 -5 -44 -1 -20 -9 -22 -29 -9 -10 6 -10 14 -3 32 5 13 12 32 15 42
9 27 25 11 22 -21z m54 33 c0 -1 -8 -10 -19 -19 -17 -16 -19 -16 -23 2 -4 15
0 20 18 20 13 0 24 -1 24 -3z m-218 -35 c18 -25 18 -27 -1 -85 -13 -40 -16
-62 -9 -66 19 -12 -2 -44 -54 -83 -29 -22 -49 -32 -45 -23 3 9 1 19 -4 23 -6
3 -9 15 -6 25 3 11 1 17 -4 13 -13 -7 -11 -71 2 -79 10 -7 -16 -45 -31 -45
-10 0 -20 78 -13 97 3 8 25 29 49 47 24 18 41 36 37 40 -3 3 -2 6 4 6 11 0 11
26 -1 53 -9 20 12 80 25 71 16 -10 9 9 -8 23 -16 12 -15 13 11 11 17 -2 37
-13 48 -28z m462 13 c-10 -7 -22 -13 -26 -13 -5 0 -3 6 4 13 7 8 19 14 26 14
11 0 10 -4 -4 -14z m55 -34 c9 -27 8 -34 -7 -45 -22 -17 -35 -17 -51 -1 -11 9
-12 9 -7 0 8 -14 -30 -27 -65 -21 -24 3 -23 4 11 37 30 29 81 59 102 61 3 0
11 -14 17 -31z m-669 -8 c0 -2 -7 -12 -16 -22 -9 -10 -19 -33 -23 -51 -6 -27
-12 -33 -31 -33 -14 0 -25 6 -24 13 1 6 2 31 3 55 l1 42 45 0 c25 0 45 -1 45
-4z m220 -41 c6 -10 9 -25 8 -32 -2 -9 10 -13 37 -13 42 0 69 -11 60 -25 -3
-4 2 -13 10 -20 8 -7 15 -19 15 -26 0 -23 42 -14 122 27 30 15 46 10 52 -18
11 -42 -31 -65 -146 -78 -48 -5 -58 -4 -58 9 0 8 5 18 11 22 8 5 6 10 -5 16
-9 5 -16 14 -16 20 0 6 7 5 17 -3 9 -8 14 -9 12 -4 -29 65 -51 85 -46 43 1
-14 -4 -23 -13 -23 -8 0 -29 -10 -45 -21 -25 -19 -27 -24 -16 -38 18 -21 3
-21 -21 1 -21 19 -24 37 -4 30 8 -3 27 10 45 30 31 35 31 35 6 29 -19 -5 -25
-2 -25 10 0 10 -6 14 -14 11 -18 -7 -36 12 -36 38 0 39 32 49 50 15z m540 2
c0 -8 -40 -47 -82 -80 -20 -16 -58 -7 -58 14 0 8 -5 14 -11 14 -6 0 -9 -11 -7
-24 3 -28 -18 -56 -43 -56 -14 0 -19 7 -19 28 0 15 6 34 13 41 10 10 9 12 -2
9 -7 -2 -16 3 -19 11 -3 8 0 11 6 7 14 -8 130 18 145 33 13 13 77 15 77 3z
m-246 -41 c8 -12 -9 -23 -81 -54 l-62 -26 -16 22 c-15 21 -14 22 27 29 24 3
59 13 78 22 41 18 47 19 54 7z m-331 -24 c20 -10 23 -17 15 -30 -5 -10 -14
-15 -19 -11 -6 3 -9 0 -8 -7 6 -28 -12 -57 -46 -75 -41 -22 -44 -36 -12 -57
17 -11 19 -18 11 -27 -9 -9 -18 -3 -38 26 l-26 39 37 32 c21 18 44 30 51 28 7
-3 10 0 7 5 -3 5 -1 18 4 29 8 14 7 22 -4 31 -8 7 -12 16 -9 21 7 11 7 11 37
-4z m565 -27 l22 -19 -25 -25 c-14 -14 -25 -30 -25 -36 0 -18 -21 -11 -61 21
-46 36 -48 44 -12 47 15 1 34 9 42 17 20 19 31 19 59 -5z m-781 -80 c-10 -37
-9 -46 11 -80 12 -22 22 -44 22 -49 0 -27 -98 -90 -105 -68 -24 74 -24 90 2
151 14 33 34 79 46 101 l20 40 8 -27 c3 -14 2 -45 -4 -68z m244 57 c-10 -9
-11 -8 -5 6 3 10 9 15 12 12 3 -3 0 -11 -7 -18z m612 -2 c7 -17 4 -20 -45 -33
-47 -13 -49 -1 -5 27 38 25 43 25 50 6z m-520 -21 c20 -8 23 -24 3 -24 -9 0
-12 -7 -9 -20 4 -17 1 -18 -28 -14 -30 5 -36 2 -52 -26 -12 -22 -22 -30 -33
-26 -10 4 -22 -1 -30 -11 -13 -17 -13 -17 -14 3 0 14 -8 24 -22 28 -19 5 -20
8 -8 15 8 5 17 8 21 5 4 -2 9 3 13 11 7 19 26 20 26 2 0 -19 43 -15 58 6 7 9
10 22 7 28 -8 12 25 40 40 34 6 -3 18 -8 28 -11z m396 -59 c16 -5 21 -15 21
-39 0 -19 9 -45 21 -60 l20 -26 -38 0 c-69 0 -97 38 -106 142 l-4 47 33 -29
c18 -15 42 -31 53 -35z m222 19 c9 -11 19 -33 22 -51 5 -25 1 -36 -20 -57 -14
-14 -29 -23 -34 -21 -4 3 -10 1 -14 -5 -10 -17 -81 -11 -105 8 -21 17 -43 93
-33 117 2 7 15 11 29 9 13 -1 24 2 24 8 0 6 6 5 15 -2 12 -10 15 -10 15 0 0 7
8 18 17 25 20 15 56 1 84 -31z m-351 11 c16 5 18 2 14 -20 -3 -18 0 -25 11
-25 8 0 15 -5 15 -11 0 -20 -35 -4 -38 19 -2 12 -9 22 -17 22 -15 0 -27 25
-17 35 4 4 8 -1 10 -10 3 -10 10 -14 22 -10z m-30 -15 c11 -11 20 -27 20 -35
0 -9 7 -18 15 -21 22 -9 -18 -36 -83 -57 -41 -13 -58 -14 -77 -5 -22 10 -24
15 -18 52 3 23 2 37 -3 33 -8 -7 -12 -24 -16 -59 -3 -27 -11 -21 -34 27 l-21
44 56 6 c31 4 74 13 96 20 22 7 41 14 43 14 1 1 11 -8 22 -19z m-261 -33 c6
-8 18 -31 27 -52 l16 -38 -53 6 c-29 4 -56 10 -61 15 -11 11 31 81 48 82 6 0
17 -6 23 -13z m65 -54 c25 -39 37 -49 64 -51 40 -4 138 23 173 49 35 25 47 24
24 -1 -28 -31 -98 -52 -177 -54 l-72 -1 -28 50 c-46 84 -37 88 16 8z m-273 10
c16 -42 5 -50 -25 -19 -20 22 -23 31 -14 38 21 13 28 9 39 -19z m-41 -24 c0
-5 -4 -9 -10 -9 -5 0 -10 7 -10 16 0 8 5 12 10 9 6 -3 10 -10 10 -16z m154 7
c-3 -8 -17 -22 -31 -31 -23 -15 -27 -15 -41 -1 -14 13 -13 14 4 10 12 -3 27 3
38 15 22 24 38 28 30 7z" fill="#ffffff" class="color000 svgShape"></path><path d="M1991 2364c8-9 20-33 26-53l13-36-5 38c-4 40-20 67-37 67-6 0-4-7 3-16zM1378 2253c7-3 16-2 19 1 4 3-2 6-13 5-11 0-14-3-6-6zM1425 2240c28-12 37-12 30 0-3 6-16 10-28 9-21 0-21-1-2-9zM1356 2155c4-8 9-15 13-15 17 0 50-82 67-165 41-200 17-410-62-552-33-60-96-124-142-146-31-14-36-4-17 33 9 18 23 50 31 72l14 39-32-26c-66-56-159-87-143-47 33 79 54 154 54 192-1 45-1 44-15-20-7-36-22-87-33-115-18-47-21-50-50-47-17 2-31-1-31-7 0-6 11-11 25-11 14 0 25-4 25-9 0-5 14-11 31-15 31-6 74 9 118 41l23 17-27-53c-21-43-24-55-13-62 22-15 35-10 87 31 59 47 123 130 140 182 7 20 20 39 29 43 34 14 128 34 160 35 17 0 32 5 32 11 0 17-121 4-161-16-17-9-33-15-35-12-3 2 2 30 11 63 8 32 15 91 15 131 0 40 4 73 8 73 17 0 125-124 169-195 57-91 104-235 76-235-4 0-26 10-50 21-115 55-273-21-273-132 0-27 18-23 32 6 12 26 31 35 26 13-4-21 13-72 29-90 18-20 83-24 114-8 10 6 19 20 19 30 0 11 7 20 15 20 14 0 21 18 27 68 3 20 5 21 20 10 16-12 16-16 4-40-8-15-12-29-8-32 11-12 50-6 62 9 11 13 8 14-19 9l-31-6 16 31c8 17 19 31 23 31 13 0 33 53 23 59-5 3-10 39-10 79-2 83-9 176-18 212-3 14-7 56-7 93-2 53-6 72-20 81-9 7-17 25-17 40 0 18-7 30-24 37-21 10-24 16-19 46 5 26 1 39-17 58-13 14-28 25-34 25-5 0 3-13 18-29 23-24 26-34 21-64-6-30-4-36 14-42 21-6 39-50 27-62-3-4-16 3-29 14-30 27-47 36-47 24 0-5 9-13 20-16 11-3 20-12 20-19 0-23 25-37 39-23 10 9 15 8 25-5 13-17 10-88-4-88-4 0-5 11-2 25 2 15 0 25-8 25-7 0-9-8-5-20 3-11 2-20-2-20-15 0-33 23-33 42 0 10-4 18-9 18-5 0-23 12-40 26-24 20-30 31-25 50 5 21 1 26-29 39-20 8-38 19-42 25-8 13-25 13-25-1 0-6 18-18 41-27 36-14 40-19 35-43-4-22 1-31 40-58 24-18 42-36 39-41-3-5 6-17 20-26 14-9 25-26 25-38 0-13 11-32 24-45 20-19 23-32 24-94l2-72-15 34c-9 19-13 41-10 49 6 15-13 57-22 48-3-3 0-12 7-21 7-9 10-18 7-21-3-3-13 9-23 28-31 61-129 174-170 196-17 9-23 24-28 81-8 77-35 180-60 229-17 33-61 66-50 37zm348-451c11-27 7-37-9-24-16 14-20 40-6 40 5 0 12-7 15-16zm-36-330c20-10 45-16 55-15 22 3 22-11-1-32-16-15-21-14-62 9-57 33-93 47-85 34 3-6-2-10-12-11-58-2-78-10-106-44-34-42-45-40-23 3 32 63 153 91 234 56zm-53-26c35-16 38-81 6-108-10-8-21-23-24-32-5-13-17-18-44-18-47 0-59 8-72 43-18 48-14 83 14 101 34 22 40 20 21-9-16-24-16-27 10-60 14-19 29-35 33-35 9 0 51 68 51 84 0 8-7 16-15 20-8 3-15 10-15 16 0 13 3 13 35-2zm-36-20c5-14 5-31-2-43-14-29-15-29-32-12-18 19-20 48-3 65 18 18 28 15 37-10zM2072 2095c-6-14-8-25-3-25 8 0 23 41 17 47-1 2-8-8-14-22z" fill="#ffffff" class="color000 svgShape"></path><path d="M1032 2018c-96-99-163-250-176-392-8-78 9-181 36-223 12-21 32-65 43-98 12-33 26-60 33-60 7 0 16-6 21-13 6-10 13-10 37 3 37 19 57 19 95-1 39-20 43-15 23 24-19 38-76 57-145 48-42-6-47-4-53 16-11 43-6 56 37 102 30 33 50 46 70 46 15 0 27 5 27 10 0 6-7 10-15 10-9 0-1 19 27 55 22 30 44 53 48 50 4-3 11 17 14 43 16 106 22 164 16 167-9 6-32-104-24-117 5-7 3-8-6-3-10 6-12 4-7-9 6-15-16-73-32-86-4-3-15-18-24-33-10-16-50-62-90-103-69-74-71-75-83-52-8 16-9 27-2 35 7 9 4 26-11 56-58 120 19 385 152 517 22 22 38 43 35 45-3 3-24-14-46-37zm-138-563c3-8 1-15-4-15-6 0-10 7-10 15 0 8 2 15 4 15 2 0 6-7 10-15zm226-185c12-19 7-22-21-12-13 5-40 5-63 0-39-9-63 3-49 25 9 14 123 3 133-13zM1256 2038c-9-12-16-32-16-43-1-25-40-70-69-80-11-3-21-11-21-16 0-13 9-11 44 11 34 21 47 41 67 105 10 34 13 37 20 20 4-11 8-30 8-42 2-52 42-94 89-92 11 0 9 4-8 10-42 17-59 39-70 95-13 59-21 65-44 32zM1555 1966c22-19 42-32 45-29 6 6-61 63-75 63-5 0 8-16 30-34z" fill="#ffffff" class="color000 svgShape"></path><path d="M1132 1885c2-12 12-21 25-23 31-5 59-43 67-91 3-22 10-42 15-45 13-9-7 85-25 111-8 13-27 29-42 36-15 6-31 16-35 22-5 6-7 1-5-10zM1343 1875c-17-7-43-31-56-52-26-42-40-83-27-83 4 0 11 11 14 25 10 41 47 95 65 95 9 0 26 7 37 15 24 18 9 18-33 0zM1010 1853c5-2 10-21 10-41 0-44 7-55 40-71 25-13 25-12-2 11-19 16-28 34-30 62-2 22-9 41-16 42-7 1-8 0-2-3zM979 1807c-8-18-28-38-42-45-22-11-25-16-17-32 6-10 15-22 20-25 6-3 10-15 10-25 0-10 4-21 9-25 18-10 0 50-21 72l-20 21 23 4c23 3 64 59 57 77-1 5-10-5-19-22zM1008 1700c-16-17-28-38-28-48 1-15 2-14 11 3 6 11 25 32 42 48 19 16 25 27 17 27-8 0-27-14-42-30zM1470 1424c-38-17-70-42-70-56 0-6 14 2 31 16 17 14 41 29 55 32 13 3 24 10 24 15 0 11 2 11-40-7zM910 1415c7-9 15-13 17-11 7 7-7 26-19 26-6 0-6-6 2-15zM1420 1223c0-13 29-38 35-31 3 3-4 13-15 23-11 10-20 13-20 8zM1645 1200c-3-6 1-7 9-4 18 7 21 14 7 14-6 0-13-4-16-10zM1190 1180c0-5 5-10 11-10 5 0 7 5 4 10-3 6-8 10-11 10-2 0-4-4-4-10zM1084 2456c4-15 10-42 13-59l6-30-30 22c-45 34-83 26-106-23-26-56-19-95 22-123 19-13 43-23 55-23 14 0 7 7-21 20-60 27-71 55-45 114 24 54 50 60 95 21 27-24 28-27 18-77-11-65-7-72 14-22 13 32 14 50 5 113-6 42-15 80-21 86-9 7-10 2-5-19zM2101 1686c-6-29-18-62-26-72-18-24-19-35-1-28 20 8 38 53 43 107 2 26 2 47 0 47-2 0-9-24-16-54zM2106 1554c-10-33-32-79-48-103-16-24-27-45-24-48 16-16 104 168 94 198-2 6-12-15-22-47zM1520 965c0-28-4-35-20-35-11 0-36-8-55-19-31-16-33-19-15-24 11-3 20-1 20 3 0 5 8 11 18 14 9 2 27 7 40 11 15 4 22 2 22-8 0-8 7-20 16-28 13-11 14-9 9 17-26 111-35 130-35 69zM1582 983c-16-6-36-43-24-43 6 0 17 11 26 25 9 14 15 25 14 24-2 0-9-3-16-6zM1090 894c0-8 5-12 10-9 6 3 10 10 10 16 0 5-4 9-10 9-5 0-10-7-10-16zM1167 885c15-21 43-41 43-31 0 6-49 56-55 56-3 0 2-11 12-25zM1706 914c-8-22-8-24 7-24 7 0 13 9 13 20 0 24-11 26-20 4zM1656 904c-6-15-4-15 11-3 10 7 20 15 22 16 2 2-3 3-11 3-9 0-19-7-22-16zM1266 877c3-10 9-15 12-12 3 3 0 11-7 18-10 9-11 8-5-6zM1025 563l-17-28 23 22c12 12 20 25 17 28-3 3-13-7-23-22zM1261 661c-8-5-9-11-3-15 5-3 12 1 16 9 6 17 6 18-13 6zM1568 643c6-2 12-11 12-19 0-8 5-14 10-14 6 0 10 4 10 8 0 12-22 32-34 31-6 0-5-3 2-6zM1545 620c-4-6-3-16 3-22 6-6 12-6 17 2 4 6 3 16-3 22-6 6-12 6-17-2zM558 1384c-24-77-26-80-78-108-49-27-52-30-35-43 11-7 34-18 51-25 30-10 35-19 59-95 14-46 28-83 30-83 2 0 16 37 30 83 24 76 29 85 59 95 17 7 40 18 51 25 17 13 14 16-35 43-52 28-54 31-73 99-10 39-23 74-27 79-4 4-19-27-32-70zm50-25c16-60 20-66 64-89l47-26-47-24c-46-25-49-29-73-120l-12-45-21 70c-20 66-24 72-68 95l-47 24 47 26c44 23 48 29 66 92 11 37 21 66 23 64 2-2 12-32 21-67zM705 940c-3-5-1-10 4-10 6 0 11 5 11 10 0 6-2 10-4 10-3 0-8-4-11-10z" fill="#ffffff" class="color000 svgShape"></path></g></svg></g></svg>