<svg id="SvgjsSvg1001" width="288" height="288" xmlns="http://www.w3.org/2000/svg" version="1.1" xmlns:xlink="http://www.w3.org/1999/xlink" xmlns:svgjs="http://svgjs.com/svgjs"><defs id="SvgjsDefs1002"></defs><g id="SvgjsG1008" transform="matrix(1,0,0,1,0,0)"><svg xmlns="http://www.w3.org/2000/svg" width="288" height="288" version="1.0" viewBox="0 0 875 834"><g transform="matrix(.1 0 0 -.1 0 834)" fill="#ffffff" class="color000 svgShape"><path d="M5314 7695 c-17 -70 157 -422 319 -643 36 -50 38 -55 22 -72 -36 -40-65 -37 -190 20 -91 41 -318 106 -530 150 -211 45 -281 56 -405 65 -47 4 -114
11 -150 16 -36 5 -164 12 -286 16 -177 5 -244 3 -340 -11 -65 -9 -136 -18
-156 -21 -70 -8 -112 -17 -231 -51 -65 -19 -126 -34 -136 -34 -9 0 -68 -16
-130 -36 l-113 -36 -221 110 c-122 61 -287 140 -367 177 -80 37 -167 77 -195
91 -50 24 -176 73 -423 165 -127 47 -134 48 -162 34 -42 -22 -54 -49 -61 -145
-13 -158 31 -893 66 -1110 13 -80 26 -170 29 -200 3 -30 13 -90 22 -133 15
-69 15 -79 2 -95 -45 -51 -156 -255 -246 -452 -81 -176 -197 -528 -217 -660
-2 -14 -10 -69 -18 -122 -7 -53 -21 -108 -30 -121 -36 -56 -136 -152 -213
-207 -148 -105 -214 -129 -376 -133 -103 -3 -131 -19 -121 -71 13 -71 104
-207 188 -284 56 -52 185 -123 255 -142 21 -6 80 -14 130 -19 50 -5 93 -11 96
-14 3 -3 10 -51 15 -107 14 -152 76 -591 98 -700 68 -334 240 -839 367 -1075
68 -126 92 -169 132 -230 72 -113 179 -252 238 -312 47 -48 54 -60 54 -94 0
-65 -68 -221 -139 -319 -42 -57 -102 -130 -162 -194 -141 -152 -329 -401 -329
-436 0 -6 -12 -34 -26 -63 -32 -65 -64 -154 -64 -179 0 -28 29 -21 36 9 37
170 128 328 298 517 160 180 204 232 276 331 85 118 102 150 125 230 9 33 18
66 20 72 3 9 23 2 62 -22 66 -40 83 -43 107 -16 16 18 16 22 -7 77 -23 54 -91
269 -102 318 -2 12 -9 37 -15 56 -6 19 -13 100 -16 180 -4 144 -4 145 11 90
19 -69 69 -166 103 -203 101 -108 351 -250 604 -344 53 -20 100 -43 103 -52 7
-18 35 -234 35 -271 0 -23 -4 -26 -42 -27 -58 -3 -194 -71 -250 -126 -26 -26
-50 -61 -61 -92 -17 -49 -76 -350 -77 -390 0 -27 -67 -92 -102 -99 -86 -18
-78 -9 -77 -89 1 -80 15 -141 36 -158 17 -15 16 -1 -2 31 -26 45 -19 75 27
114 43 38 40 51 -5 16 -35 -28 -39 -26 -35 17 3 33 7 39 33 44 37 7 55 1 55
-16 0 -27 80 -133 110 -146 23 -11 30 -20 30 -41 l0 -28 390 0 c369 0 390 1
381 18 -5 9 -13 34 -19 54 -9 34 -9 37 6 28 34 -20 62 -49 72 -74 l10 -26 140
0 140 0 -16 25 c-13 20 -15 38 -9 94 8 84 -5 98 -35 36 -20 -41 -40 -52 -40
-21 0 22 -61 106 -96 133 -35 26 -57 25 -34 -2 19 -23 -2 -19 -63 11 -89 44
-177 107 -177 128 0 48 169 286 204 286 7 0 37 15 68 34 l56 34 -1 -62 -2 -61
46 1 c25 1 64 11 87 23 23 12 43 21 46 21 2 0 7 -14 11 -31 5 -24 -2 -47 -35
-112 -48 -96 -47 -120 6 -167 30 -26 42 -30 93 -30 95 0 105 17 126 203 6 52
10 59 38 73 18 9 39 23 48 30 14 13 23 10 69 -21 81 -54 99 -49 155 48 l27 47
36 -28 c80 -62 112 -76 144 -64 26 9 30 8 42 -16 48 -95 136 -394 136 -464 0
-50 -28 -77 -123 -117 l-72 -30 443 -1 c346 0 442 3 443 13 5 50 -19 86 -54
80 -17 -3 -26 2 -37 21 -14 28 -36 36 -26 11 3 -8 1 -15 -5 -15 -17 0 -139 61
-139 70 0 12 28 32 32 23 6 -14 65 -43 88 -43 25 0 25 -1 -4 105 -23 87 -46
274 -46 379 0 110 -6 133 -34 142 -11 4 -27 15 -34 25 -18 26 -30 24 -85 -11
-55 -35 -65 -36 -74 -12 -15 41 -79 131 -125 174 -31 29 -81 60 -134 84 -60
26 -84 42 -84 55 0 10 9 21 20 24 25 8 25 27 0 100 -11 32 -20 62 -20 66 0 4
17 13 38 19 20 7 65 25 100 41 35 16 68 29 74 29 17 0 186 70 281 117 48 24
93 43 99 43 18 0 2 -53 -57 -182 -68 -150 -76 -189 -45 -211 51 -35 166 28
387 214 105 89 121 99 148 94 66 -12 67 -12 98 40 16 28 32 73 36 100 6 40 18
64 62 120 29 38 59 77 66 85 84 109 116 140 140 140 35 0 49 -19 98 -135 39
-91 80 -433 71 -590 -13 -205 -56 -579 -85 -735 -52 -272 -76 -385 -97 -457
-5 -19 -2 -23 14 -23 26 0 25 -4 137 580 64 336 76 619 40 988 -8 86 -15 160
-15 165 0 18 19 3 50 -41 81 -114 268 -383 312 -449 61 -93 189 -346 261 -519
l26 -61 -14 -134 c-15 -140 -35 -426 -35 -491 0 -31 4 -38 20 -38 18 0 20 7
20 78 0 83 16 323 26 385 3 20 10 37 15 37 29 0 98 -317 99 -452 0 -48 0 -48
34 -48 l34 0 -5 43 c-23 181 -69 339 -173 602 -76 193 -166 385 -230 495 -58
100 -230 360 -360 545 -158 226 -180 260 -180 278 0 10 39 42 98 80 159 104
273 246 315 397 9 30 21 95 27 144 13 102 0 82 183 286 70 78 161 193 201 254
116 174 230 419 270 581 14 53 59 297 69 365 2 14 7 -69 13 -185 11 -258 10
-1070 -2 -1180 l-9 -80 -35 138 c-19 75 -38 137 -43 137 -4 0 -6 -4 -3 -8 3
-5 16 -63 30 -130 34 -163 61 -276 97 -402 52 -178 138 -452 165 -520 15 -36
32 -83 39 -105 7 -22 40 -119 73 -215 89 -260 140 -444 223 -810 7 -32 12
-123 12 -215 0 -172 -13 -260 -60 -390 -38 -107 -38 -105 -15 -105 11 0 22 8
25 18 3 9 22 64 42 122 21 63 40 143 46 200 10 87 7 249 -6 310 -3 14 -10 48
-16 76 -5 28 -21 95 -35 150 -14 54 -32 128 -40 164 -32 149 -158 551 -230
738 -50 127 -51 144 -29 328 16 136 38 429 57 764 8 144 13 472 13 910 0 594
-2 705 -18 835 -21 181 -61 436 -82 525 -8 36 -14 101 -14 146 1 45 -1 86 -4
91 -7 12 -24 82 -62 269 -13 66 -31 133 -39 149 -10 19 -13 43 -10 70 4 22 1
60 -6 83 -9 36 -18 47 -48 60 -53 24 -332 312 -332 342 0 37 30 246 50 350 10
52 24 131 30 175 6 44 20 140 32 214 33 213 20 340 -41 395 -19 17 -31 18
-113 12 -51 -3 -111 -9 -133 -12 -82 -11 -599 -196 -629 -225 -19 -18 -39 -8
-121 65 -148 133 -341 262 -475 320 -62 26 -188 76 -194 76 -3 0 -8 -11 -12
-25z m105 -47 c36 -17 84 -42 106 -56 22 -14 41 -24 41 -21 1 2 11 -5 23 -15
12 -11 21 -15 21 -10 0 5 6 2 13 -6 7 -8 29 -24 50 -35 20 -11 35 -25 33 -32
-3 -7 1 -10 8 -7 7 3 19 -2 26 -11 7 -8 17 -15 22 -15 13 0 38 -26 38 -40 0
-6 5 -8 10 -5 6 3 16 0 24 -7 7 -7 37 -33 66 -58 95 -81 246 -234 285 -290 22
-30 48 -61 58 -68 12 -9 16 -21 12 -35 -4 -15 -3 -18 3 -9 7 10 15 4 33 -25
13 -21 34 -54 46 -73 56 -86 203 -407 203 -441 0 -6 8 -29 19 -52 52 -116 82
-226 37 -136 -13 26 -28 53 -35 60 -6 8 -18 23 -26 34 -14 19 -14 19 -15 -5 0
-14 11 -47 25 -75 13 -27 25 -58 25 -67 0 -9 5 -20 10 -23 6 -3 10 -13 10 -21
0 -12 -10 -13 -51 -9 -28 4 -69 13 -90 22 -75 29 -62 6 21 -38 46 -24 85 -50
88 -58 5 -16 -18 -10 -103 29 -33 15 -76 33 -95 40 -71 27 -167 79 -220 120
-65 50 -77 63 -154 155 -107 128 -170 199 -255 288 -66 69 -81 90 -72 101 38
46 254 16 410 -57 72 -34 207 -116 228 -139 17 -21 17 -21 0 -15 -11 4 -24 1
-32 -7 -17 -16 -9 -27 13 -19 11 5 13 3 7 -7 -6 -10 -3 -12 13 -8 12 4 20 2
16 -3 -3 -5 2 -9 11 -9 22 0 63 -28 102 -70 18 -19 33 -29 33 -22 0 12 -120
194 -146 220 -8 8 -23 30 -33 51 -38 74 -121 138 -97 74 7 -18 0 -17 -128 21
-48 14 -98 26 -111 26 -61 0 -332 339 -479 600 -88 155 -144 290 -121 290 4 0
37 -14 74 -32z m-3658 -82 c82 -37 156 -98 201 -164 38 -56 96 -223 114 -332
22 -128 28 -348 15 -475 -19 -175 -19 -176 -89 -125 -141 102 -290 386 -373
710 -35 134 -50 340 -29 394 14 38 68 35 161 -8z m291 -112 c62 -26 131 -53
153 -61 22 -8 122 -54 223 -103 253 -123 491 -266 472 -283 -3 -3 -39 -21 -80
-42 -196 -98 -432 -262 -618 -431 -52 -47 -96 -84 -98 -81 -2 2 2 41 9 88 17
119 14 371 -7 506 -28 184 -91 347 -164 426 -14 15 -21 27 -15 27 6 0 62 -21
125 -46z m4920 4 c9 -7 19 -35 22 -63 5 -41 4 -46 -5 -25 -10 23 -12 20 -31
-45 -10 -38 -20 -83 -20 -98 -1 -15 -4 -23 -8 -17 -10 16 -44 -68 -41 -99 2
-15 -1 -21 -8 -17 -6 4 -11 2 -11 -4 0 -6 -9 -30 -19 -53 -11 -23 -19 -45 -20
-50 0 -4 -12 -27 -26 -51 -14 -23 -25 -53 -25 -65 0 -14 -4 -20 -11 -15 -8 4
-9 -1 -4 -16 6 -18 4 -22 -8 -17 -15 6 -31 -36 -28 -78 1 -19 0 -19 -7 -2 -6
15 -10 16 -18 5 -6 -7 -13 -20 -17 -28 -3 -8 -35 -55 -71 -105 l-66 -90 0 38
c0 20 -4 37 -10 37 -5 0 -10 10 -10 23 0 12 -8 42 -16 67 -14 38 -15 74 -10
240 4 107 15 253 24 324 l17 128 85 29 c148 51 309 72 342 47z m-447 -110
c-21 -97 -37 -268 -42 -463 l-6 -230 -47 91 c-79 151 -174 289 -293 421 l-19
22 113 57 c120 60 265 123 287 124 8 0 11 -8 7 -22z m465 -40 c0 -25 -3 -29
-10 -18 -13 20 -13 50 0 50 6 0 10 -15 10 -32z m-13 -80 c-3 -7 -5 -2 -5 12 0
14 2 19 5 13 2 -7 2 -19 0 -25z m-2502 -49 c471 -62 981 -212 1163 -342 l43
-31 -24 -13 c-54 -28 -46 -55 43 -148 38 -39 85 -101 106 -140 20 -38 53 -95
73 -125 20 -30 38 -59 41 -65 3 -5 17 -29 33 -52 15 -24 27 -50 27 -59 0 -9
24 -56 54 -103 148 -237 349 -736 410 -1021 54 -251 96 -634 96 -875 0 -209
-44 -706 -70 -790 -5 -16 -12 -54 -16 -83 -4 -32 -10 -49 -15 -41 -4 7 -15 14
-23 15 -9 1 -14 -2 -10 -7 3 -5 9 -7 14 -4 23 14 23 -81 0 -145 -5 -14 -14
-44 -20 -68 -6 -23 -15 -40 -20 -37 -6 4 -10 -13 -10 -39 0 -27 -5 -46 -11
-46 -6 0 -9 -6 -6 -14 7 -18 -13 -97 -23 -91 -5 3 -6 -4 -3 -15 3 -12 0 -20
-6 -20 -7 0 -11 -6 -10 -12 1 -7 1 -24 0 -37 -1 -20 -3 -21 -16 -11 -12 10
-15 10 -15 -4 0 -9 4 -16 10 -16 5 0 7 -7 4 -15 -4 -8 -10 -12 -15 -9 -5 3 -9
-9 -9 -26 0 -17 -3 -29 -7 -27 -5 3 -8 -12 -9 -33 0 -21 -8 -45 -17 -55 -9 -9
-17 -23 -17 -32 0 -8 -6 -27 -14 -41 -25 -47 -66 -140 -66 -151 0 -6 -4 -11
-10 -11 -5 0 -10 -6 -10 -13 0 -12 -47 -109 -86 -177 -12 -22 -14 -23 -14 -5
0 16 -2 17 -9 6 -5 -8 -7 -20 -4 -28 3 -8 -1 -21 -9 -31 -8 -9 -20 -30 -26
-45 -7 -15 -17 -25 -22 -22 -5 3 -8 0 -5 -7 6 -18 -35 -67 -42 -50 -2 6 -11
12 -18 12 -7 0 -16 6 -18 13 -4 9 -6 9 -6 0 -1 -7 8 -22 19 -33 19 -19 18 -50
-1 -50 -5 0 -9 -7 -9 -16 0 -8 -4 -12 -10 -9 -6 3 -10 -5 -10 -19 0 -18 -4
-24 -15 -20 -9 4 -15 0 -15 -9 0 -18 -32 -77 -42 -77 -12 0 4 39 18 44 8 3 14
11 14 18 0 23 -41 -28 -42 -53 -2 -24 -50 -96 -75 -112 -7 -4 -13 -12 -13 -18
0 -18 -129 -141 -140 -134 -6 4 -11 1 -9 -6 3 -28 -1 -39 -16 -39 -8 0 -15 -4
-15 -8 0 -5 -24 -26 -54 -48 -30 -21 -52 -43 -48 -48 3 -5 -2 -7 -11 -3 -11 4
-17 1 -17 -6 0 -15 -169 -142 -177 -134 -2 3 -13 -2 -24 -11 -11 -9 -22 -15
-26 -14 -3 2 -9 -1 -12 -6 -3 -6 -19 -14 -35 -18 -26 -6 -28 -5 -21 17 7 24
77 171 95 199 39 62 220 549 220 592 0 10 5 18 10 18 6 0 10 7 10 16 0 11 5
14 17 10 15 -6 15 -5 -1 13 -10 11 -15 25 -10 32 5 9 10 7 15 -7 5 -11 6 -3 3
21 -4 31 -1 45 14 62 23 27 37 30 28 6 -7 -17 -6 -17 11 0 14 14 15 19 5 26
-20 12 3 18 58 16 25 -1 39 0 33 2 -7 3 -13 9 -13 15 0 6 7 8 15 4 8 -3 15 -1
15 3 0 20 -30 19 -44 -1 -9 -12 -19 -18 -23 -14 -11 10 39 47 55 41 8 -3 12 0
10 7 -7 20 38 51 59 40 10 -4 34 -6 53 -3 46 8 48 35 2 39 -24 2 -32 7 -28 18
11 28 -27 14 -78 -29 -97 -82 -163 -125 -277 -181 -111 -54 -203 -85 -216 -72
-3 3 32 63 79 133 115 173 187 331 238 520 6 24 39 81 75 130 36 47 65 90 65
95 0 4 -16 16 -36 25 l-36 18 7 65 c4 36 10 83 15 105 25 117 35 333 35 720 0
415 -10 572 -49 808 -8 45 -17 105 -21 132 -11 79 -82 403 -116 527 -39 145
-138 443 -185 556 -84 204 -183 402 -253 507 -63 96 -172 215 -196 215 -22 0
-19 -6 30 -51 197 -182 433 -683 575 -1219 16 -63 37 -140 45 -170 27 -96 75
-364 105 -580 27 -204 56 -724 43 -789 -6 -28 -10 -8 -19 94 -22 225 -28 272
-65 444 -41 192 -128 473 -186 601 -17 36 -44 97 -61 135 -112 254 -276 510
-449 703 -55 62 -143 132 -164 132 -5 0 33 -42 84 -92 76 -77 101 -110 143
-193 69 -134 108 -265 125 -429 12 -109 7 -397 -7 -433 -8 -20 -14 -13 -58 65
-45 81 -133 221 -146 232 -3 3 -20 24 -38 47 -83 107 -308 303 -346 303 -9 0
-16 6 -16 14 0 7 -10 16 -22 19 -12 4 -19 9 -16 13 4 3 -10 20 -30 38 -66 55
-111 111 -121 152 -5 21 -21 71 -36 109 -14 39 -29 78 -32 88 -6 19 -23 24
-23 6 0 -6 5 -19 10 -29 17 -31 57 -236 74 -375 19 -152 37 -442 31 -500 -3
-22 -9 -119 -15 -215 -14 -218 -24 -302 -56 -460 -56 -273 -104 -435 -181
-610 -58 -130 -142 -295 -174 -342 -11 -14 -19 -29 -19 -33 0 -12 -61 -96 -95
-131 -39 -40 -70 -46 -62 -11 62 264 107 637 77 637 -5 0 -10 -24 -10 -52 0
-78 -18 -186 -37 -225 -10 -21 -44 -56 -87 -88 -181 -134 -446 -235 -619 -235
-84 0 -93 10 -78 88 27 138 43 434 37 682 -5 168 -3 270 5 325 14 91 15 403 3
453 -6 22 -9 -35 -9 -160 0 -263 -28 -434 -117 -708 -83 -258 -286 -576 -381
-595 -18 -4 -56 -14 -84 -23 -29 -8 -55 -13 -59 -10 -3 4 8 57 25 120 98 360
181 831 210 1188 17 213 23 448 11 455 -6 4 -10 -5 -10 -22 -1 -88 -22 -386
-31 -433 -61 -312 -234 -846 -421 -1295 -97 -233 -85 -219 -117 -146 -29 65
-48 91 -38 53 3 -13 1 -20 -5 -16 -5 3 -7 16 -4 29 3 12 -3 62 -14 111 -33
154 -45 324 -45 624 1 306 15 488 61 760 89 530 284 1030 510 1307 19 23 34
45 34 49 -1 4 5 11 14 16 9 5 16 16 16 24 0 52 -105 -80 -212 -266 -58 -100
-188 -375 -188 -397 0 -5 -7 -21 -15 -37 -37 -71 -120 -365 -165 -587 -65
-323 -84 -567 -77 -994 8 -463 36 -706 126 -1070 65 -260 119 -439 181 -592
21 -53 36 -101 33 -106 -3 -5 -28 -6 -57 -2 -66 8 -145 57 -245 150 -124 118
-206 224 -325 422 -37 62 -72 113 -77 113 -16 0 -10 -30 12 -59 18 -24 19 -31
8 -49 -11 -18 -11 -24 3 -39 20 -23 29 -75 17 -93 -7 -12 -9 -11 -9 6 0 12
-11 52 -25 90 -29 80 -30 84 -11 58 8 -10 17 -16 21 -12 11 10 -14 48 -32 48
-11 0 -14 7 -11 25 3 13 1 22 -3 19 -9 -5 -13 15 -11 46 1 8 -7 40 -18 70 -26
77 -56 185 -70 250 -16 79 -58 372 -65 460 -4 41 -8 93 -10 115 -2 22 -7 127
-11 233 -4 105 -11 192 -15 192 -14 0 -29 -38 -29 -74 0 -25 -4 -36 -15 -36
-11 0 -15 -12 -15 -45 0 -36 -3 -45 -18 -45 -14 0 -17 7 -14 45 3 28 0 45 -7
45 -6 0 -11 -18 -11 -40 0 -25 -5 -40 -12 -40 -7 0 -5 -5 5 -11 10 -6 36 -9
58 -7 21 2 35 1 31 -3 -4 -4 -29 -9 -56 -12 -27 -3 -43 -1 -37 3 16 9 -10 20
-47 19 -24 0 -25 -1 -7 -9 25 -12 -49 -1 -82 11 -13 5 -23 5 -23 0 0 -5 -10
-7 -22 -3 -36 8 -128 63 -128 75 0 6 -3 8 -6 4 -13 -13 -167 141 -159 160 2 7
-1 16 -8 20 -20 13 -47 60 -47 83 0 22 39 30 41 8 0 -10 2 -10 6 0 2 6 16 12
29 12 14 0 22 -4 19 -10 -3 -5 1 -10 10 -10 9 0 14 4 11 8 -3 5 32 17 77 26
45 10 94 24 109 32 15 8 30 15 33 15 2 0 21 7 41 15 20 8 39 13 42 10 3 -3 -1
-6 -8 -6 -9 0 -7 -5 6 -15 25 -19 40 -19 24 0 -16 19 -10 19 39 -1 22 -9 46
-14 53 -11 7 3 3 6 -8 6 -12 1 -24 8 -28 16 -3 8 -14 15 -25 15 -11 0 -23 5
-26 10 -3 6 3 10 14 10 12 0 21 7 21 15 0 9 12 18 30 22 17 3 35 14 41 24 5
11 14 19 19 19 11 0 60 48 60 59 0 15 28 33 34 23 3 -6 0 -12 -8 -15 -15 -6
-29 -47 -16 -47 5 0 10 8 12 18 2 9 5 -7 5 -36 1 -31 -2 -50 -8 -47 -5 4 -9 1
-9 -4 0 -15 15 -14 28 2 12 14 24 76 47 230 40 283 148 652 272 927 60 135
189 370 263 480 20 30 49 73 63 95 48 71 168 196 337 353 205 190 351 297 585
429 186 106 493 227 694 274 293 68 700 83 1046 38z m2445 -64 c0 -14 -2 -25
-4 -25 -2 0 -6 11 -8 25 -3 14 -1 25 3 25 5 0 9 -11 9 -25z m-11 -57 c0 -13
-3 -17 -6 -10 -2 6 -10 9 -16 5 -7 -4 -6 1 2 10 18 22 21 21 20 -5z m29 -9 c0
-22 -2 -29 -10 -21 -5 5 -7 19 -3 31 9 29 12 26 13 -10z m-5288 -46 c37 -116
117 -288 173 -375 52 -81 176 -208 203 -208 8 0 14 -4 14 -10 0 -13 -57 -13
-122 1 -54 12 -123 43 -123 57 0 4 -7 6 -15 4 -13 -2 -13 -2 0 7 8 5 11 13 7
17 -3 4 -15 1 -24 -7 -16 -12 -17 -12 -7 1 10 12 4 29 -27 83 -21 38 -39 73
-39 78 0 6 -4 8 -9 5 -5 -4 -7 3 -4 13 3 11 -4 28 -16 40 -12 12 -19 26 -16
31 3 4 1 30 -4 57 -11 54 -25 273 -17 273 2 0 14 -30 26 -67z m5255 8 c3 -10
1 -29 -5 -42 -9 -21 -9 -19 -5 11 6 34 5 34 -11 15 -15 -18 -16 -18 -10 -2 3
10 6 23 6 28 0 16 19 9 25 -10z m-1163 -71 c2 -5 27 -34 57 -65 29 -30 47 -55
40 -55 -8 0 -25 -3 -39 -6 -20 -4 -22 -3 -10 5 12 9 12 11 1 11 -8 0 -20 8
-28 18 -13 15 -13 15 -4 -5 8 -16 8 -24 -1 -29 -7 -4 -8 -3 -4 4 4 7 1 12 -8
12 -9 0 -16 6 -16 13 0 7 -9 18 -20 25 -11 7 -20 8 -20 3 0 -5 7 -12 16 -15 9
-4 14 -9 12 -12 -10 -10 -64 31 -61 46 2 8 18 25 36 37 36 25 44 27 49 13z
m1210 -67 c-2 -24 -8 -41 -13 -38 -4 3 -6 11 -4 18 2 7 6 25 10 41 9 40 13 29
7 -21z m-142 23 c0 -3 -4 -8 -10 -11 -5 -3 -10 -1 -10 4 0 6 5 11 10 11 6 0
10 -2 10 -4z m27 -28 c-3 -7 -5 -2 -5 12 0 14 2 19 5 13 2 -7 2 -19 0 -25z
m20 -30 c-3 -8 -6 -5 -6 6 -1 11 2 17 5 13 3 -3 4 -12 1 -19z m73 -26 c0 -15
-2 -15 -10 -2 -13 20 -13 33 0 25 6 -3 10 -14 10 -23z m-110 -24 c0 -5 -7 -3
-15 6 -8 8 -15 18 -15 22 0 3 7 1 15 -6 8 -7 15 -17 15 -22z m-54 -35 c-10
-26 -18 -8 -9 23 5 21 8 24 11 11 2 -10 1 -25 -2 -34z m141 -5 c-3 -8 -6 -5
-6 6 -1 11 2 17 5 13 3 -3 4 -12 1 -19z m-71 -95 c-11 -11 -17 4 -9 23 7 18 8
18 11 1 2 -10 1 -21 -2 -24z m44 16 c0 -6 -4 -7 -10 -4 -5 3 -10 11 -10 16 0
6 5 7 10 4 6 -3 10 -11 10 -16z m-120 -26 c-11 -17 -11 -17 -6 0 3 10 0 17 -7
17 -7 0 -6 4 3 10 19 12 25 -3 10 -27z m-5086 -58 c5 -22 4 -26 -4 -15 -5 8
-10 24 -10 34 0 26 6 18 14 -19z m5212 -13 c-15 -15 -15 -15 -4 10 7 15 15 23
17 17 2 -6 -4 -18 -13 -27z m-347 -42 c0 -9 -4 -8 -9 5 -5 11 -9 27 -9 35 0 9
4 8 9 -5 5 -11 9 -27 9 -35z m221 26 c0 -2 -8 -10 -17 -17 -16 -13 -17 -12 -4
4 13 16 21 21 21 13z m92 -8 c5 -15 -15 -38 -34 -38 -9 1 -9 4 3 13 9 7 14 18
12 25 -3 6 0 12 5 12 6 0 12 -6 14 -12z m-5132 -18 c0 -5 -2 -10 -4 -10 -3 0
-8 5 -11 10 -3 6 -1 10 4 10 6 0 11 -4 11 -10z m5084 -5 c-4 -8 -16 -15 -28
-15 -17 0 -18 -2 -6 -10 8 -5 11 -12 8 -15 -8 -8 -28 3 -28 15 0 7 21 21 57
39 1 1 0 -6 -3 -14z m-210 -39 c-10 -8 -21 -12 -24 -10 -5 6 21 24 34 24 6 0
1 -6 -10 -14z m36 -11 c0 -2 -10 -10 -22 -16 -21 -11 -22 -11 -9 4 13 16 31
23 31 12z m94 -11 c3 -8 2 -12 -4 -9 -6 3 -10 10 -10 16 0 14 7 11 14 -7z
m-20 -20 c30 -29 19 -33 -14 -4 -13 11 -18 20 -12 20 6 0 18 -7 26 -16z
m-4994 -14 c0 -5 -4 -10 -10 -10 -5 0 -10 5 -10 10 0 6 5 10 10 10 6 0 10 -4
10 -10z m5160 -23 c0 -5 -4 -5 -10 -2 -5 3 -10 14 -10 23 0 15 2 15 10 2 5 -8
10 -19 10 -23z m-245 -8 c4 -11 4 -23 1 -26 -3 -4 -6 1 -6 10 0 10 -4 17 -10
17 -5 0 -10 -5 -10 -12 0 -6 -2 -9 -5 -6 -7 7 5 38 15 38 5 0 12 -9 15 -21z
m213 -29 c-3 -27 -1 -50 3 -50 5 0 9 -5 9 -11 0 -8 -5 -8 -15 1 -8 7 -23 10
-32 6 -12 -4 -10 0 5 10 16 12 22 26 22 55 0 22 3 39 6 39 4 0 4 -22 2 -50z
m-5021 24 c-3 -3 -12 -4 -19 -1 -8 3 -5 6 6 6 11 1 17 -2 13 -5z m-117 -61
c-11 -17 -11 -17 -6 0 3 10 7 28 7 40 2 22 2 22 6 0 2 -12 -1 -30 -7 -40z
m284 37 l41 0 -34 -30 c-36 -32 -46 -36 -56 -20 -4 6 -11 7 -17 4 -7 -5 -9 -1
-5 9 4 10 -1 18 -14 22 -32 11 -22 28 12 21 17 -3 50 -6 73 -6z m-254 -70 c0
-29 -4 -40 -15 -40 -8 0 -15 5 -15 10 0 6 5 10 10 10 6 0 10 14 10 30 0 17 2
30 5 30 3 0 5 -18 5 -40z m4945 22 c-3 -3 -11 0 -18 7 -9 10 -8 11 6 5 10 -3
15 -9 12 -12z m-4785 -2 c0 -5 -4 -10 -10 -10 -5 0 -10 5 -10 10 0 6 5 10 10
10 6 0 10 -4 10 -10z m40 -25 c0 -8 -7 -15 -16 -15 -14 0 -14 3 -4 15 7 8 14
15 16 15 2 0 4 -7 4 -15z m4740 11 c0 -11 -19 -15 -25 -6 -3 5 1 10 9 10 9 0
16 -2 16 -4z m111 -35 c124 -83 195 -189 223 -331 13 -68 10 -150 -5 -150 -5
0 -9 4 -9 10 0 5 -11 12 -25 16 -13 3 -41 22 -62 42 -21 19 -61 50 -89 68 -57
37 -83 79 -109 179 -15 60 -20 150 -9 179 9 24 35 19 85 -13z m54 11 c-3 -3
-11 0 -18 7 -9 10 -8 11 6 5 10 -3 15 -9 12 -12z m-178 -17 c0 -8 -4 -12 -9
-9 -4 3 -8 9 -8 15 0 5 4 9 8 9 5 0 9 -7 9 -15z m-4777 -28 c0 -8 -4 -6 -10 3
-9 13 -11 13 -20 0 -7 -12 -9 -10 -7 7 1 17 5 20 19 12 10 -5 18 -15 18 -22z
m-123 1 c-3 -8 -6 -5 -6 6 -1 11 2 17 5 13 3 -3 4 -12 1 -19z m-50 -45 c-3
-10 -5 -2 -5 17 0 19 2 27 5 18 2 -10 2 -26 0 -35z m88 -32 c-3 -6 -11 -11
-17 -11 -6 0 -6 6 2 15 14 17 26 13 15 -4z m-68 -33 c-3 -8 -6 -5 -6 6 -1 11
2 17 5 13 3 -3 4 -12 1 -19z m5520 -164 c23 -23 25 -31 20 -82 -8 -72 -52
-159 -96 -189 -45 -31 -57 -25 -53 25 4 45 -22 82 -58 82 -31 0 -26 48 10 97
27 36 114 93 142 93 5 0 21 -12 35 -26z m-517 -10 c65 -32 148 -93 170 -124
20 -28 21 -39 15 -97 -6 -60 -5 -67 18 -92 13 -14 31 -39 38 -56 17 -35 52
-44 79 -20 16 15 19 13 48 -32 79 -124 92 -236 37 -309 -15 -20 -34 -38 -43
-41 -34 -14 -150 152 -187 265 -17 53 -17 53 9 105 28 57 27 60 -39 77 -100
26 -131 43 -196 110 -80 80 -109 132 -109 196 l0 47 63 -6 c34 -3 78 -13 97
-23z m-556 -10 c3 -8 2 -12 -4 -9 -6 3 -10 10 -10 16 0 14 7 11 14 -7z m370
-54 c7 -24 6 -24 -8 -6 -9 11 -16 29 -16 40 1 17 2 18 9 6 5 -8 12 -26 15 -40z
m-324 30 c0 -5 -2 -10 -4 -10 -3 0 -8 5 -11 10 -3 6 -1 10 4 10 6 0 11 -4 11
-10z m-3 -27 c6 4 13 -2 16 -13 3 -11 0 -23 -5 -27 -7 -3 -8 -1 -4 5 4 7 2 12
-3 12 -6 0 -11 -6 -11 -12 -1 -7 -7 2 -15 21 -19 42 -19 50 -2 26 8 -10 19
-15 24 -12z m93 -28 c16 -20 8 -29 -19 -20 -12 4 -18 12 -14 21 7 18 17 18 33
-1z m270 -80 c0 4 9 0 20 -10 11 -10 20 -22 20 -27 0 -13 33 -41 97 -84 38
-24 60 -49 78 -84 14 -28 22 -50 19 -50 -3 0 1 -12 11 -26 29 -44 12 -35 -58
30 -37 35 -67 60 -67 57 -1 -3 -7 9 -15 27 -8 17 -18 32 -24 32 -5 0 -12 14
-16 30 -4 17 -11 28 -16 24 -5 -3 -9 2 -9 10 0 9 -20 35 -45 58 -25 23 -45 47
-45 53 0 5 11 -3 25 -19 14 -16 25 -25 25 -21z m-181 10 c6 3 11 1 11 -5 0 -6
4 -9 8 -6 5 3 6 -9 3 -27 l-5 -32 -7 30 c-6 24 -7 20 -6 -20 0 -27 7 -66 14
-85 6 -19 12 -46 11 -60 0 -23 -1 -22 -8 5 l-8 30 -1 -30 c-1 -16 -6 -37 -11
-45 -7 -11 -10 -3 -11 30 -2 37 -3 39 -6 13 -5 -39 -23 -45 -23 -8 0 16 -6 25
-16 25 -8 0 -13 4 -9 10 3 5 12 7 20 3 12 -4 15 4 15 36 0 23 4 41 9 41 13 0
8 74 -6 83 -7 4 -13 16 -13 25 1 15 2 15 15 -2 7 -10 18 -15 24 -11z m116 -8
c4 4 5 3 2 -3 -3 -6 7 -25 23 -42 16 -18 27 -32 24 -32 -2 0 17 -21 42 -47 26
-27 50 -47 53 -46 4 1 5 -14 3 -33 -2 -19 -1 -73 3 -119 7 -82 7 -84 43 -108
20 -14 52 -39 70 -56 53 -50 81 -37 82 37 0 14 4 21 11 17 6 -4 8 -13 5 -21
-3 -8 0 -11 8 -8 7 3 20 -6 29 -19 16 -25 15 -44 -12 -212 -20 -127 -30 -139
-72 -83 -31 41 -102 106 -279 257 -41 35 -79 70 -84 79 -12 20 -7 417 5 450
l11 27 12 -23 c7 -12 16 -19 21 -15z m-191 -4 c-7 -2 -10 -14 -8 -26 4 -21 4
-21 -5 -2 -9 18 -10 18 -10 -5 -1 -15 4 -31 11 -38 9 -9 9 -12 0 -12 -8 0 -9
-7 -1 -26 5 -15 8 -29 5 -31 -2 -3 -7 6 -12 19 -4 12 -14 29 -23 36 -15 12
-14 13 2 8 22 -7 21 -4 -4 40 -15 27 -16 35 -6 31 8 -3 23 0 34 8 10 7 20 11
23 8 3 -3 0 -8 -6 -10z m-55 -53 c0 -9 -6 -4 -14 10 -19 33 -19 49 0 24 8 -10
14 -26 14 -34z m168 8 c-3 -8 -6 -5 -6 6 -1 11 2 17 5 13 3 -3 4 -12 1 -19z
m866 -20 c4 -18 13 -64 22 -103 8 -38 15 -72 15 -74 0 -2 -9 4 -20 14 -11 10
-20 30 -20 44 -1 14 -7 54 -14 88 -7 34 -11 65 -8 67 10 10 19 -4 25 -36z
m-262 11 c29 -29 23 -83 -9 -87 -47 -7 -76 44 -52 89 14 25 35 24 61 -2z
m-601 -30 c0 -11 -4 -18 -10 -14 -5 3 -7 12 -3 20 7 21 13 19 13 -6z m767 -89
c28 -16 67 -49 86 -72 46 -57 99 -163 95 -191 -6 -47 -127 -26 -180 31 -14 15
-33 49 -42 76 -8 27 -28 64 -42 83 l-26 35 18 34 c10 19 23 34 29 34 5 0 33
-13 62 -30z m-3032 -60 c3 -5 -1 -10 -9 -10 -9 0 -16 5 -16 10 0 6 4 10 9 10
6 0 13 -4 16 -10z m2255 -62 c-1 -43 -3 -49 -11 -35 -10 17 -4 87 6 87 3 0 5
-24 5 -52z m-2250 21 c0 -5 -4 -9 -10 -9 -5 0 -10 7 -10 16 0 8 5 12 10 9 6
-3 10 -10 10 -16z m784 -73 c31 -51 56 -97 56 -101 0 -4 8 -19 18 -33 10 -15
25 -43 32 -62 8 -19 16 -37 19 -40 7 -6 29 -61 42 -107 6 -18 14 -33 19 -33 6
0 9 -3 9 -7 -3 -21 2 -33 12 -27 8 4 9 0 4 -15 -4 -14 -2 -21 6 -21 8 0 9 -3
4 -9 -6 -5 -48 3 -106 22 l-95 32 -12 135 c-8 88 -22 171 -42 240 -43 153 -42
154 34 26z m-783 -59 c-10 -9 -11 -8 -5 6 3 10 9 15 12 12 3 -3 0 -11 -7 -18z
m216 -29 c138 -93 283 -250 391 -423 87 -141 146 -271 113 -251 -5 3 -30 -6
-57 -19 -41 -21 -63 -25 -138 -25 -107 0 -267 23 -373 53 l-78 22 -7 260 c-3
143 -11 279 -16 302 -5 24 -6 41 -2 38 5 -3 11 12 15 34 5 32 10 38 26 34 11
-3 21 1 25 11 3 9 10 16 14 16 5 0 44 -24 87 -52z m-190 -5 c-3 -10 -5 -4 -5
12 0 17 2 24 5 18 2 -7 2 -21 0 -30z m-20 -65 c-3 -8 -6 -5 -6 6 -1 11 2 17 5
13 3 -3 4 -12 1 -19z m3141 8 c25 4 27 -7 11 -76 -23 -100 -87 -193 -145 -209
-50 -14 -80 -2 -133 53 -92 95 -102 109 -95 136 4 14 7 31 7 38 1 21 11 13 42
-32 43 -64 87 -70 131 -18 12 15 31 25 47 25 34 0 87 47 87 77 0 17 3 20 13
12 6 -5 22 -8 35 -6z m-3118 -90 c0 -26 -6 -18 -14 19 -5 22 -4 26 4 15 5 -8
10 -24 10 -34z m17 -48 c-3 -8 -6 -5 -6 6 -1 11 2 17 5 13 3 -3 4 -12 1 -19z
m2338 -76 c34 -32 122 -90 186 -123 24 -12 49 -28 57 -35 7 -8 17 -12 22 -9 5
3 11 1 15 -5 14 -23 224 -110 267 -110 9 0 20 -5 23 -11 15 -24 -60 -321 -89
-352 -6 -7 -20 -29 -31 -49 -27 -49 -67 -100 -142 -178 -56 -58 -79 -100 -54
-100 12 0 74 51 119 97 66 67 130 173 166 273 l27 75 -6 -70 c-9 -106 -42
-229 -91 -338 -24 -53 -44 -101 -44 -106 0 -5 -3 -11 -7 -13 -5 -1 -21 -29
-37 -60 -16 -32 -36 -66 -45 -75 -9 -10 -35 -43 -58 -73 -67 -90 -161 -180
-261 -251 -24 -17 -46 -28 -49 -25 -3 2 0 44 7 93 7 48 15 120 18 158 11 117
6 753 -6 830 -6 39 -14 122 -17 185 -3 63 -8 157 -11 208 -4 50 -2 92 2 92 5
0 23 -13 39 -28z m-2352 -82 c3 -41 2 -54 -3 -35 -8 31 -13 112 -6 104 2 -2 6
-33 9 -69z m24 8 c-2 -13 -4 -3 -4 22 0 25 2 35 4 23 2 -13 2 -33 0 -45z m882
-41 c65 -24 131 -86 149 -142 8 -22 21 -56 30 -75 8 -19 17 -56 20 -82 3 -28
9 -45 14 -42 6 4 8 -2 4 -14 -4 -13 -1 -22 9 -26 8 -3 15 -13 14 -23 0 -16 -1
-16 -9 2 -8 19 -9 19 -9 1 -1 -11 6 -28 16 -38 15 -17 15 -18 0 -18 -9 0 -38
13 -65 30 -76 47 -140 72 -216 84 l-71 12 -6 115 c-4 63 -8 123 -10 134 -1 11
-2 42 -1 68 l2 48 38 -7 c20 -4 61 -16 91 -27z m96 3 c3 -6 -1 -7 -9 -4 -18 7
-21 14 -7 14 6 0 13 -4 16 -10z m-978 -47 c-3 -10 -5 -4 -5 12 0 17 2 24 5 18
2 -7 2 -21 0 -30z m-20 -95 c-2 -13 -4 -5 -4 17 -1 22 1 32 4 23 2 -10 2 -28
0 -40z m20 10 c-3 -7 -5 -2 -5 12 0 14 2 19 5 13 2 -7 2 -19 0 -25z m740 0
c-3 -8 -6 -5 -6 6 -1 11 2 17 5 13 3 -3 4 -12 1 -19z m-755 -90 c-6 -6 -7 0
-4 19 5 21 7 23 10 9 2 -10 0 -22 -6 -28z m3232 -3 c4 -26 16 -150 31 -315 22
-238 28 -885 10 -1075 -3 -27 -10 -149 -15 -270 -10 -208 -13 -273 -25 -490
-8 -140 -46 -498 -55 -520 l-8 -20 0 20 c0 11 -13 61 -30 110 -53 154 -84 264
-77 275 14 23 35 437 34 705 0 353 -22 819 -54 1125 -9 80 -18 174 -21 210 -3
36 -11 108 -18 161 -7 53 -11 100 -9 105 2 5 55 9 118 9 l115 0 4 -30z m-3230
-54 c-2 -3 -12 3 -22 13 -16 17 -16 18 5 5 12 -7 20 -15 17 -18z m90 -21 c31
-10 117 -29 191 -42 l134 -22 16 -46 c42 -117 101 -230 156 -301 63 -80 217
-169 294 -169 20 0 30 -11 51 -52 42 -83 114 -167 209 -243 51 -41 68 -60 71
-83 8 -45 28 -55 39 -19 l6 22 8 -25 c11 -36 13 -230 3 -243 -13 -16 -21 -68
-10 -61 4 3 7 -15 6 -39 -2 -25 -7 -43 -11 -40 -5 3 -5 -17 -2 -43 5 -35 4
-46 -3 -39 -6 6 -13 37 -15 70 -3 43 -4 36 -3 -25 0 -47 -4 -96 -8 -110 -8
-24 -8 -24 7 -5 20 26 33 14 15 -14 -7 -12 -15 -21 -18 -21 -3 0 -29 14 -58
30 -45 27 -52 35 -50 58 3 27 -8 32 -42 18 -47 -19 -481 390 -653 614 -48 63
-92 120 -97 127 -5 6 -38 54 -74 105 -138 201 -240 393 -238 450 0 15 -4 26
-9 23 -5 -4 -5 4 1 19 5 13 10 47 11 75 2 28 6 51 9 51 4 0 32 -9 64 -20z
m586 -21 c0 -6 -4 -7 -10 -4 -5 3 -10 11 -10 16 0 6 5 7 10 4 6 -3 10 -11 10
-16z m-690 -25 c0 -8 -4 -12 -10 -9 -5 3 -10 10 -10 16 0 5 5 9 10 9 6 0 10
-7 10 -16z m10 -41 c-11 -17 -11 -17 -6 0 3 10 7 26 7 35 1 15 2 15 6 0 2 -10
-1 -25 -7 -35z m884 5 c83 -20 160 -55 213 -96 34 -25 60 -90 49 -119 -4 -11
-2 -13 9 -10 10 5 16 -4 21 -29 3 -19 4 -38 0 -41 -3 -4 -6 5 -6 20 0 14 -5
29 -11 33 -8 5 -10 -19 -7 -88 3 -71 0 -98 -10 -107 -7 -7 -11 -19 -9 -25 9
-22 -175 -20 -265 3 -124 32 -196 79 -267 175 -42 55 -135 234 -145 277 l-5
25 121 2 c67 1 123 4 125 6 7 7 113 -7 187 -26z m-913 -80 c0 -7 10 -31 22
-54 12 -23 42 -78 65 -124 55 -105 135 -235 207 -334 30 -43 55 -83 55 -89 0
-9 -35 -11 -132 -9 -73 2 -178 -2 -233 -9 -55 -7 -103 -12 -107 -11 -5 1 -8
-3 -8 -9 0 -8 14 -9 43 -5 109 18 309 23 414 11 l63 -7 57 -71 c31 -39 134
-149 228 -245 93 -96 171 -178 173 -182 2 -4 -23 -21 -55 -37 -55 -27 -65 -28
-203 -30 -80 0 -173 -6 -208 -12 -145 -27 -306 -97 -419 -182 -52 -39 -57 -47
-53 -82 1 -10 -6 -30 -15 -44 -18 -27 -14 -42 7 -26 14 12 269 123 281 123 4
0 -1 -17 -12 -38 -38 -74 -55 -153 -54 -257 0 -214 92 -397 227 -456 31 -13
56 -27 56 -31 0 -4 -12 -8 -27 -10 -16 -2 12 -8 62 -12 120 -12 272 -2 372 24
65 17 87 19 103 10 28 -15 33 -9 21 24 -11 27 -25 33 -36 16 -7 -12 -129 -50
-159 -50 -13 1 3 12 40 29 115 53 204 161 248 299 39 124 39 235 0 336 -5 14
8 9 52 -21 90 -62 99 -75 97 -142 -1 -31 -8 -80 -16 -108 -8 -29 -11 -53 -8
-53 3 0 16 15 29 33 19 28 22 29 22 10 0 -29 -66 -215 -101 -285 -16 -31 -67
-114 -114 -183 -93 -136 -105 -174 -57 -177 58 -3 90 5 176 43 49 21 92 36 95
33 6 -5 -119 -388 -149 -459 -15 -36 -28 -45 -116 -89 -254 -126 -435 -193
-669 -247 -390 -90 -684 -120 -980 -100 -287 21 -555 87 -802 198 -241 108
-417 233 -479 339 -34 58 -86 213 -79 235 3 10 -1 44 -9 76 -8 32 -19 103 -26
158 -6 55 -20 139 -30 186 -21 96 -94 292 -146 387 -70 129 -24 86 82 -78 32
-49 62 -90 67 -90 5 0 6 8 2 18 -38 87 -45 205 -16 267 22 49 96 116 165 150
45 22 154 50 162 42 2 -2 -6 -32 -17 -67 -41 -131 -34 -304 17 -459 30 -89 63
-148 113 -204 l36 -40 -49 5 c-64 8 -42 -5 60 -33 57 -16 109 -22 189 -23 171
-2 207 26 256 199 16 56 19 283 6 353 -7 34 -6 42 5 40 9 -2 12 7 10 32 -7 65
-45 119 -146 208 l-49 42 66 0 c81 0 297 48 397 88 127 51 267 135 309 185 22
27 29 20 20 -20 -4 -21 -20 -94 -35 -162 -26 -120 -26 -125 -8 -138 10 -7 21
-13 24 -13 20 0 100 66 132 109 71 94 186 318 263 509 23 57 49 112 57 122 9
10 14 21 11 23 -2 3 7 38 22 79 57 157 115 427 115 536 0 23 5 42 10 42 6 0
10 -6 11 -12z m1231 -208 c3 -16 1 -30 -4 -30 -4 0 -8 14 -8 30 0 17 2 30 4
30 2 0 6 -13 8 -30z m7 -77 c0 -31 -2 -34 -9 -18 -12 28 -12 55 0 55 6 0 10
-17 9 -37z m-32 -20 c-3 -10 -5 -4 -5 12 0 17 2 24 5 18 2 -7 2 -21 0 -30z
m56 -94 c-4 -4 -9 6 -10 24 -1 30 -1 31 8 8 5 -14 6 -28 2 -32z m-3108 -72
c-3 -45 -18 -147 -35 -227 -17 -80 -32 -154 -34 -165 -2 -11 -25 -107 -51
-213 l-48 -193 -41 2 c-43 3 -48 -4 -32 -56 5 -15 -2 -25 -29 -42 -38 -25
-111 -32 -102 -10 34 83 174 422 188 455 10 23 22 42 28 42 6 0 8 7 5 15 -6
15 19 100 71 235 18 47 44 120 56 162 13 43 25 78 26 78 2 0 0 -37 -2 -83z
m2986 28 c39 -4 67 -11 68 -18 1 -7 6 -52 11 -102 13 -123 13 -124 22 -119 4
3 8 -4 8 -15 0 -20 0 -20 -30 -2 -31 18 -118 98 -155 142 -27 32 -85 116 -85
124 0 3 21 3 48 1 26 -3 77 -8 113 -11z m-2513 -72 c-3 -43 -15 -107 -27 -143
-41 -118 -130 -280 -196 -355 l-26 -30 25 41 c81 136 175 364 206 507 7 31 15
57 18 57 2 0 2 -35 0 -77z m2630 50 c-6 -7 -16 -13 -22 -13 -6 0 -5 4 3 9 11
7 10 10 -5 14 -12 3 -9 4 8 4 21 -1 24 -4 16 -14z m-3 -102 c-8 -57 2 -50 15
10 l9 44 -4 -45 c-6 -76 -16 -114 -26 -99 -13 21 -11 152 2 143 7 -4 8 -23 4
-53z m1517 -64 c-6 -7 -22 -42 -37 -80 -45 -111 -193 -380 -225 -407 -3 -3
-13 -15 -21 -27 -39 -58 -199 -230 -199 -215 0 4 -5 0 -10 -8 -7 -11 -9 -5 -6
20 5 57 18 114 28 127 5 7 7 16 4 21 -3 6 1 28 8 50 8 22 12 43 9 46 -3 3 -3
20 1 38 5 26 19 42 64 73 143 100 258 212 335 329 34 51 53 73 55 62 2 -9 -1
-22 -6 -29z m-1484 -42 c-1 -31 1 -57 7 -59 6 -3 5 -5 -1 -5 -24 -2 -34 26
-28 73 9 65 27 58 22 -9z m-2661 -223 c-4 -75 -16 -199 -26 -274 -10 -82 -14
-143 -9 -152 12 -22 6 -20 -52 14 -69 40 -152 68 -234 76 l-67 7 99 101 c106
108 160 177 211 267 17 32 38 60 46 63 8 3 15 14 15 25 0 11 3 28 7 38 14 37
18 -26 10 -165z m2337 -334 c38 -32 73 -58 78 -58 16 0 8 -29 -9 -32 -28 -6
-178 68 -177 86 0 9 1 32 2 52 2 42 -9 47 106 -48z m240 -173 c30 -19 60 -35
66 -35 5 0 10 -13 10 -30 0 -16 -5 -30 -11 -30 -16 0 -149 108 -149 120 0 19
30 10 84 -25z m-3552 -7 c-8 -8 -9 -4 -5 13 4 13 8 18 11 10 2 -7 -1 -18 -6
-23z m32 -40 c-4 -6 -10 -5 -15 3 -14 22 -10 33 6 19 8 -7 12 -17 9 -22z m77
-11 c-8 -8 -11 -7 -11 4 0 20 13 34 18 19 3 -7 -1 -17 -7 -23z m2568 -18 c21
-38 7 -76 -34 -96 -63 -30 -105 10 -74 70 33 63 81 74 108 26z m-2058 1 c26
-15 26 -73 -1 -100 -38 -38 -90 -17 -90 35 0 16 51 75 65 75 3 0 15 -5 26 -10z
m3954 -146 c45 -69 68 -203 54 -313 -30 -243 -194 -450 -444 -560 -27 -12 -49
-20 -51 -19 -2 3 78 142 163 283 28 48 65 126 118 255 29 70 36 76 57 50 10
-13 21 -21 24 -18 2 3 -7 20 -22 37 l-27 32 26 67 c14 37 36 100 48 140 13 39
26 72 30 72 4 0 14 -12 24 -26z m-1805 -141 c17 -14 30 -32 30 -40 0 -7 34
-47 77 -87 l76 -75 73 66 c41 36 79 79 86 95 25 54 85 50 201 -15 34 -19 38
-25 33 -51 -13 -65 -56 -136 -121 -201 -69 -69 -103 -89 -195 -111 -148 -36
-329 11 -415 107 -48 54 -85 132 -85 178 0 37 4 43 53 79 50 37 105 66 155 81
1 1 16 -11 32 -26z m-2035 -39 c13 -9 29 -30 35 -47 5 -18 35 -58 65 -90 30
-32 55 -62 55 -67 0 -17 20 -11 27 8 4 9 23 34 44 55 21 21 43 53 49 72 13 40
40 52 82 34 l31 -12 -7 -68 c-7 -80 -49 -204 -80 -237 -62 -69 -163 -70 -294
-3 -45 24 -82 46 -82 49 0 4 -14 23 -31 42 -35 39 -80 131 -85 172 -2 14 -5
31 -6 38 -4 15 109 62 165 69 4 1 19 -6 32 -15z m-1138 -172 c-3 -12 -5 -11
-6 6 0 12 -5 22 -11 22 -5 0 -10 8 -10 17 0 14 3 13 16 -5 8 -12 13 -30 11
-40z m18 -22 c-3 -5 -12 -10 -18 -10 -7 0 -6 4 3 10 19 12 23 12 15 0z m-1
-46 c-5 -19 -4 -25 5 -20 6 4 11 14 11 23 0 13 3 13 15 3 17 -14 20 -40 5 -40
-5 0 -10 -7 -10 -15 0 -16 39 -36 53 -28 4 2 10 -4 14 -14 8 -22 20 -37 53
-70 14 -13 25 -30 25 -36 2 -21 17 -47 27 -47 6 0 5 7 -2 15 -7 9 -10 18 -7
22 4 3 13 -9 21 -28 8 -19 16 -32 19 -29 2 3 20 -11 38 -30 19 -19 26 -28 17
-21 -23 17 -25 -4 -3 -25 8 -9 15 -11 15 -5 0 6 6 8 14 5 12 -5 13 -11 4 -30
-9 -20 -8 -28 5 -42 11 -10 17 -12 17 -4 0 7 -4 12 -10 12 -5 0 -10 7 -10 15
0 8 5 15 10 15 6 0 10 -4 10 -10 0 -5 5 -10 11 -10 8 0 7 5 -1 15 -19 23 -6
28 15 5 15 -17 16 -22 4 -37 -11 -15 -11 -16 1 -5 22 19 36 15 75 -23 21 -19
34 -27 31 -17 -4 11 1 9 14 -7 11 -13 20 -18 20 -12 0 7 5 9 10 6 6 -4 8 -11
5 -16 -4 -5 -1 -9 5 -9 6 0 8 -4 5 -10 -3 -5 -2 -10 3 -10 5 0 13 -26 17 -57
19 -154 139 -585 191 -685 13 -25 13 -28 -1 -28 -8 0 -15 3 -15 8 0 4 -16 16
-35 26 -41 22 -156 132 -205 196 -19 25 -47 59 -62 75 -16 17 -34 42 -41 58
-6 15 -15 27 -19 27 -4 0 -5 8 -1 18 3 9 3 14 -1 10 -13 -11 -57 43 -55 68 0
3 -11 20 -25 39 -14 18 -31 44 -37 57 -5 13 -18 39 -29 58 -10 19 -16 38 -13
43 2 4 1 7 -4 7 -7 0 -34 54 -68 135 -7 17 -17 41 -23 55 -54 126 -55 130 -32
130 11 0 20 -5 20 -11 0 -5 5 -7 11 -3 14 9 -29 34 -47 27 -13 -5 -30 50 -20
65 3 5 1 22 -4 38 l-8 29 -2 -35 c-1 -28 -3 -31 -9 -15 -4 11 -11 33 -15 49
-7 27 -6 28 11 15 10 -8 5 2 -11 21 -28 34 -29 35 -8 38 20 3 32 22 15 22 -24
1 -35 18 -24 39 16 29 23 26 15 -5z m4226 -159 c0 -8 -2 -15 -4 -15 -2 0 -6 7
-10 15 -3 8 -1 15 4 15 6 0 10 -7 10 -15z m20 -718 c0 -13 -14 -45 -31 -71
-25 -37 -34 -44 -45 -35 -20 17 -17 26 10 33 17 4 28 17 37 43 19 60 29 70 29
30z m-2585 -341 c108 -25 236 -45 355 -55 l75 -6 -2 -31 c-2 -24 3 -36 22 -48
44 -29 33 -52 -31 -64 -102 -21 -233 -109 -288 -194 -14 -21 -26 -28 -51 -28
-31 0 -37 -6 -72 -67 -55 -96 -68 -94 -77 9 -3 46 -13 106 -22 133 -9 28 -22
93 -29 145 -8 52 -19 124 -24 159 -11 73 -8 85 23 77 11 -3 66 -17 121 -30z
m1255 3 c0 -29 -21 -49 -45 -43 -19 5 -30 0 -47 -19 -21 -23 -24 -24 -45 -10
-22 15 -26 14 -49 -8 -21 -20 -28 -22 -45 -11 -21 14 -59 8 -59 -9 0 -14 -72
0 -93 19 -16 14 -21 14 -48 -2 -23 -13 -34 -15 -42 -7 -17 17 4 32 54 37 74 7
322 44 359 53 49 12 60 12 60 0z m-173 -185 c-74 -59 -177 -130 -177 -123 0 6
-10 19 -22 30 -22 18 -23 19 -4 34 10 8 23 12 28 9 5 -4 20 4 32 15 19 18 27
20 50 11 24 -9 29 -7 44 19 13 24 19 27 34 18 9 -6 16 -12 15 -13z m-328 -41
c11 3 26 -1 32 -9 10 -12 7 -20 -13 -42 -14 -15 -28 -36 -32 -46 -12 -34 -27
-2 -32 65 -5 58 -4 62 10 45 9 -11 23 -17 35 -13z m833 -24 c59 -30 132 -107
167 -177 17 -34 31 -67 31 -75 0 -7 -21 -38 -47 -68 -107 -125 -174 -260 -191
-381 -5 -35 -11 -56 -14 -48 -21 59 -70 246 -78 295 -14 88 -12 281 4 348 10
41 24 69 47 93 18 19 34 34 36 34 2 0 22 -9 45 -21z m-1204 -46 c-6 -27 -14
-52 -19 -57 -5 -6 -9 -19 -9 -31 0 -26 -56 -131 -114 -215 -25 -36 -58 -86
-73 -112 -16 -26 -32 -46 -37 -45 -14 5 -45 104 -53 164 -5 49 -3 57 37 125
48 81 79 113 154 162 70 46 88 55 107 56 14 0 15 -6 7 -47z m490 4 c19 -15 15
-72 -8 -92 -16 -14 -23 -15 -34 -6 -8 7 -24 10 -34 7 -27 -9 -45 17 -37 53 12
54 67 73 113 38z m-1108 -27 c8 -5 11 -10 5 -10 -5 0 -17 5 -25 10 -8 5 -10
10 -5 10 6 0 17 -5 25 -10z m-25 -28 c-3 -3 -11 0 -18 7 -9 10 -8 11 6 5 10
-3 15 -9 12 -12z m-45 -7 c0 -8 -2 -15 -4 -15 -2 0 -6 7 -10 15 -3 8 -1 15 4
15 6 0 10 -7 10 -15z m-20 -9 c0 -11 -13 -36 -19 -36 -4 0 -7 9 -7 20 0 11 6
20 13 20 7 0 13 -2 13 -4z m-40 -16 c0 -5 -5 -10 -11 -10 -5 0 -7 5 -4 10 3 6
8 10 11 10 2 0 4 -4 4 -10z m2310 -77 c0 -3 -49 -53 -108 -112 -64 -62 -128
-137 -157 -181 -52 -81 -95 -137 -95 -122 0 117 273 453 346 425 8 -3 14 -7
14 -10z m-1878 -25 c-25 -25 -4 -173 42 -298 3 -8 2 -22 -3 -29 -23 -36 -87
105 -96 209 -4 56 25 130 52 130 13 0 14 -3 5 -12z m506 -10 c-2 -12 -18 -30
-35 -41 -33 -19 -33 -19 -33 2 0 25 33 61 56 61 10 0 14 -7 12 -22z m472 -24
c21 -55 4 -86 -26 -46 -14 18 -18 54 -7 65 12 13 24 7 33 -19z m940 16 c0 -5
-3 -9 -7 -8 -11 3 -54 -21 -82 -46 -13 -11 -21 -15 -17 -8 9 16 85 72 98 72 4
0 8 -4 8 -10z m-1280 -100 c-16 -48 -18 -65 -9 -71 6 -4 9 -14 6 -23 -4 -9 -2
-16 2 -16 11 0 21 26 17 43 -1 6 -1 9 1 5 2 -4 11 -4 19 -1 9 3 14 -2 14 -16
0 -12 5 -21 10 -21 6 0 10 5 10 10 0 6 7 10 16 10 14 0 15 -7 10 -37 -3 -21
-6 -49 -6 -62 l0 -25 -30 29 c-16 15 -27 32 -24 36 3 5 1 16 -4 26 -9 15 -10
14 -16 -4 -5 -17 -17 -22 -57 -25 -28 -1 -52 -1 -54 2 -3 6 109 209 113 205 2
-1 -7 -31 -18 -65z m1292 -1 c1 -34 0 -63 -3 -65 -4 -2 -14 8 -23 22 -10 14
-31 33 -48 44 l-30 18 38 21 c58 30 62 28 66 -40z m-163 -6 c-62 -66 -105
-126 -145 -200 -21 -40 -40 -71 -42 -69 -7 8 37 106 68 152 30 43 137 153 150
154 2 0 -12 -17 -31 -37z m-1829 -80 c10 -43 17 -79 15 -81 -8 -8 -37 76 -42
123 -8 71 6 49 27 -42z m1925 48 c11 -9 28 -26 38 -39 10 -12 23 -20 28 -17 5
4 9 -12 9 -34 0 -23 -3 -41 -6 -41 -4 0 -26 18 -50 40 -27 25 -60 44 -88 51
-26 6 -46 14 -46 17 0 4 12 16 28 29 29 24 53 22 87 -6z m-1974 -74 c-18 -18
-25 1 -11 30 l14 28 4 -24 c2 -13 -1 -28 -7 -34z m1919 2 c25 -11 55 -30 67
-41 l22 -21 -20 -29 -21 -29 -16 23 c-9 13 -23 28 -32 35 -18 15 -89 17 -124
3 -33 -12 -32 -7 2 41 32 45 55 49 122 18z m-1896 -31 c17 -55 16 -68 -4 -68
-12 0 -30 -5 -42 -11 -11 -6 -21 -9 -24 -7 -6 7 19 82 31 90 16 12 35 9 39 -4z
m771 -52 c19 -15 35 -36 35 -46 0 -21 -46 -50 -80 -50 -41 0 -119 55 -120 84
0 5 8 18 17 29 26 28 100 19 148 -17z m1099 5 c24 -10 42 -29 34 -37 -2 -2
-22 5 -43 16 -22 11 -51 20 -65 20 -20 0 -22 2 -10 10 15 10 39 8 84 -9z
m-2387 -63 c-2 -13 -4 -3 -4 22 0 25 2 35 4 23 2 -13 2 -33 0 -45z m2554 23
c1 -11 6 -35 28 -124 11 -49 21 -93 21 -98 0 -6 -19 3 -42 19 l-43 29 3 96 c3
78 6 95 18 90 8 -3 14 -8 15 -12z m-60 -92 c-3 -90 -3 -91 -44 -135 -22 -24
-44 -44 -49 -44 -4 0 -8 28 -8 63 0 45 6 71 21 97 19 31 78 110 82 110 1 0 0
-41 -2 -91z m-2006 71 c-27 -12 -43 -12 -25 0 8 5 22 9 30 9 10 0 8 -3 -5 -9z
m-495 -62 c0 -26 -13 -16 -17 13 -2 12 1 18 7 14 5 -3 10 -16 10 -27z m2179
-45 c-11 -53 -30 -83 -51 -83 -4 0 -8 7 -8 15 0 8 8 15 19 15 15 0 21 12 30
61 7 34 15 59 18 56 2 -3 -1 -32 -8 -64z m139 26 c34 -11 62 -24 63 -27 8 -63
7 -63 -87 -21 -78 35 -96 47 -88 60 9 14 46 10 112 -12z m-1658 -25 c0 -8 7
-14 15 -14 8 0 15 -5 15 -11 0 -6 -9 -8 -20 -4 -15 5 -20 2 -20 -11 0 -31 -10
-8 -16 37 -6 39 -5 42 10 30 9 -7 16 -20 16 -27z m-299 -151 c-14 -29 -29 -53
-32 -53 -7 0 -19 61 -19 98 0 13 15 41 33 64 l32 40 6 -48 c4 -39 1 -59 -20
-101z m354 108 c3 -5 1 -12 -5 -16 -5 -3 -10 1 -10 9 0 18 6 21 15 7z m-135
-30 c0 -26 -4 -29 -72 -50 -40 -11 -81 -21 -92 -21 -38 0 8 41 79 70 39 16 73
29 78 29 4 1 7 -12 7 -28z m1748 -21 c2 -27 10 -39 32 -52 17 -9 30 -24 30
-32 0 -12 -10 -10 -52 9 -48 22 -53 28 -54 57 -1 45 6 60 25 56 10 -2 17 -15
19 -38z m-1338 -5 c7 -9 8 -15 2 -15 -5 0 -12 7 -16 15 -3 8 -4 15 -2 15 2 0
9 -7 16 -15z m1396 4 c9 -15 -11 -33 -30 -26 -9 4 -13 13 -10 22 7 17 30 20
40 4z m-2346 -19 c0 -24 -29 -38 -40 -20 -12 19 -1 40 21 40 12 0 19 -7 19
-20z m260 -35 c0 -8 -4 -15 -10 -15 -5 0 -10 7 -10 15 0 8 5 15 10 15 6 0 10
-7 10 -15z m2180 5 c0 -17 -47 -60 -65 -60 -23 0 -18 11 18 41 34 30 47 35 47
19z m-2180 -59 c0 -6 -4 -13 -10 -16 -5 -3 -10 1 -10 9 0 9 5 16 10 16 6 0 10
-4 10 -9z m2270 -15 c0 -11 -19 -15 -25 -6 -3 5 1 10 9 10 9 0 16 -2 16 -4z
m-1553 -38 c-3 -8 -6 -5 -6 6 -1 11 2 17 5 13 3 -3 4 -12 1 -19z" fill="#ffffff" class="color000 svgShape"></path><path d="M5901 6553c7-12 15-20 18-17 3 2-3 12-13 22-17 16-18 16-5-5zM6235 6550c-3-5-1-10 4-10 6 0 11 5 11 10 0 6-2 10-4 10-3 0-8-4-11-10zM6470 6380c0-21 17-46 25-38 4 4 0 17-9 30-10 14-16 17-16 8zM3990 7088c-162-15-185-20-188-46-2-12-8-22-13-22-6 0-7 9-4 22 6 17 4 20-10 14-9-3-35-9-58-12-35-5-81-17-192-48-11-3-10-3-136-52-48-19-89-34-93-34-3 0-15-8-26-17-11-10-23-17-26-15-8 5-75-47-117-92-25-26-34-42-26-45 7-2 15 1 17 8 2 6 8 11 14 11 9 0 190 109 214 129 7 5 14 7 18 4 3-3 16 1 28 9 33 20 106 45 155 53 24 4 45 11 49 16 10 17 80 9 142-16 76-31 191-91 215-112 9-9 20-14 23-11 5 6-49 74-76 94-70 54-97 103-60 110 8 2 40 8 70 14 30 6 119 17 198 24 79 8 146 16 149 20 9 8-153 5-267-6zm-233-114c-3-3-12-4-19-1-8 3-5 6 6 6 11 1 17-2 13-5zM2443 6120c-18-20-33-44-33-51 0-14 80 69 80 84 0 15-16 4-47-33zM1131 4384c0-11 3-14 6-6 3 7 2 16-1 19-3 4-6-2-5-13zM1080 4373c0-5 4-15 10-23 11-18 25-7 17 15-6 15-27 21-27 8zM1122 4340c0-14 2-19 5-12 2 6 2 18 0 25-3 6-5 1-5-13zM1017 4324c-8-8 1-24 14-24 5 0 9 7 9 15 0 15-12 20-23 9zM1148 4324c-5-4-8-19-8-33 0-18 3-22 11-14 6 6 9 21 7 33-1 12-6 18-10 14zM1127 4183c-7-99-7-141 0-125 2 6 9 10 14 6 5-3 9 37 9 95 0 56-4 101-9 101-5 0-11-35-14-77zM786 4235c-17-13-18-15-3-15 9 0 17-4 17-10 0-5-5-10-11-10-5 0-7-4-4-10 3-5 15-10 26-10 16 0 19 6 16 35-2 38-11 42-41 20zM930 3940c0-54-4-80-12-80-6 0-9-3-5-6 3-3 15-3 26 1 19 6 21 14 21 86 0 64-3 79-15 79-12 0-15-16-15-80zM763 3923c-15-5-17-23-4-23 5 0 11 7 15 15 3 8 4 15 3 14-1 0-8-3-14-6zM6422 3355c0-16 2-22 5-12 2 9 2 23 0 30-3 6-5-1-5-18zM6270 3053c0-6-3-18-6-27-3-9-1-16 5-16 17 0 25 30 12 43-8 8-11 8-11 0zM6342 2990c0-14 2-19 5-12 2 6 2 18 0 25-3 6-5 1-5-13zM6335 2930c-3-5-1-10 4-10 6 0 11 5 11 10 0 6-2 10-4 10-3 0-8-4-11-10zM6195 2899c-4-6-5-12-2-15 2-3 7 2 10 11 7 17 1 20-8 4zM6326 2897c3-10 9-15 12-12 3 3 0 11-7 18-10 9-11 8-5-6zM6260 2787c0-18-5-38-10-43-7-7-7-18 0-35 10-23 10-23 5 4-4 19-2 26 5 22 6-4 10 10 10 39 0 25-2 46-5 46-3 0-5-15-5-33zM6110 2779c0-5 5-7 10-4 6 3 10 8 10 11 0 2-4 4-10 4-5 0-10-5-10-11zM6052 2705c-24-24-17-40 12-29 9 3 16 17 16 30 0 28 1 28-28-1zM5950 2589c0-5 5-7 10-4 6 3 10 8 10 11 0 2-4 4-10 4-5 0-10-5-10-11zM6166 2567c3-10 9-15 12-12 3 3 0 11-7 18-10 9-11 8-5-6zM5900 2540c0-5 5-10 10-10 6 0 10 5 10 10 0 6-4 10-10 10-5 0-10-4-10-10zM6190 2531c0-7-6-11-14-8-10 4-12 0-9-14 3-10 9-19 13-19 9 0 21 42 15 49-3 2-5-1-5-8zM5875 2510c-3-5 1-10 10-10 9 0 13 5 10 10-3 6-8 10-10 10-2 0-7-4-10-10zM5806 2455c-3-10 1-15 12-15 15 0 15-2 2-10-13-8-12-10 3-10 12 0 17 8 17 25 0 27-24 35-34 10zM6090 2406c0-31 6-34 13-6 3 11 1 23-4 26-5 3-9-6-9-20zM5777 2413c-4-3-7-16-8-27 0-12-3-15-6-8-2 6-12 12-20 12-9 0-13-6-9-15 3-8 1-15-4-15-6 0-10-4-10-9 0-5 16-9 35-9 34 0 35 1 35 39 0 40-2 44-13 32zM6125 2410c3-5 8-10 11-10 2 0 4 5 4 10 0 6-5 10-11 10-5 0-7-4-4-10zM6117 2375c-4-8-2-17 3-20 6-4 10 3 10 14 0 25-6 27-13 6zM6092 2308c-3-37 2-35 12 5 3 15 3 27-2 27-4 0-9-14-10-32zM6070 2260c-9-6-10-10-3-10 6 0 15 5 18 10 8 12 4 12-15 0zM6042 2200c0-14 2-19 5-12 2 6 2 18 0 25-3 6-5 1-5-13zM6007 2191c-4-17-3-21 5-13 5 5 8 16 6 23-3 8-7 3-11-10zM5948 2093c7-3 16-2 19 1 4 3-2 6-13 5-11 0-14-3-6-6zM5927 2061c-4-17-3-21 5-13 5 5 8 16 6 23-3 8-7 3-11-10zM5915 2000c-3-6 1-7 9-4 18 7 21 14 7 14-6 0-13-4-16-10zM5422 1980c0-14 2-19 5-12 2 6 2 18 0 25-3 6-5 1-5-13zM5845 1910c3-5 8-10 11-10 2 0 4 5 4 10 0 6-5 10-11 10-5 0-7-4-4-10zM5461 3634c0-11 3-14 6-6 3 7 2 16-1 19-3 4-6-2-5-13zM5463 3603c-14-5-18-35-6-47 4-3 8-27 11-51 3-36 0-45-12-45-17 0-20-9-10-34 9-24 32-2 39 38 8 47-7 144-22 139zM2280 2386c0-19 4-22 24-19 13 3 37-2 54-11 52-27 49-18-5 19-62 41-73 43-73 11zM3286 2103c-6-14-5-15 5-6 7 7 10 15 7 18-3 3-9-2-12-12zM3441 1749c-40-16-52-39-47-92 6-54 47-136 78-156 19-12 20-11 13 6-10 24-6 91 7 117 16 31 50 66 64 66 38 0 107-91 125-165l7-30 1 31c2 64-39 127-117 181-65 45-96 55-131 42zM5461 3794c0-11 3-14 6-6 3 7 2 16-1 19-3 4-6-2-5-13zM1475 2439c-4-6-5-12-2-15 2-3 7 2 10 11 7 17 1 20-8 4zM1497 2351c-2-11-1-23 3-28 5-4 10-21 12-38 2-18 10-31 20-33 12-2 15 2 11 17-3 12 1 20 10 23 14 3 14 5 1 22-14 19-14 19-14-2 0-12-4-22-10-22-5 0-10 4-10 9 0 5-3 17-7 27-4 11-3 15 4 11 11-7 28 22 18 31-3 3-5 0-5-8 0-9-3-10-14-1-11 9-15 7-19-8zM1601 2264c0-11 3-14 6-6 3 7 2 16-1 19-3 4-6-2-5-13zM1605 2206c0-15 5-22 13-19 14 6 14 6 6 27-9 24-19 19-19-8zM1567 2133c-10-9-9-41 1-47 5-3 9 8 9 24 0 33-1 33-10 23zM1687 2123c-12-12-7-19 12-19 15 0 17 3 9 13-12 15-13 15-21 6zM1920 1960c0-5 7-10 16-10 8 0 12 5 9 10-3 6-10 10-16 10-5 0-9-4-9-10zM1631 1924c0-11 3-14 6-6 3 7 2 16-1 19-3 4-6-2-5-13zM1716 1757c3-10 9-15 12-12 3 3 0 11-7 18-10 9-11 8-5-6zM7345 953c-1-235-9-303-66-523-31-120-93-292-135-371-29-56-29-59-5-59 27 0 76 115 145 340 62 200 93 439 82 640-11 213-21 201-21-27zM2025 649c-32-64-74-116-176-224-102-107-279-370-279-415 0-5 8-10 18-10 12 0 25 14 37 40 22 50 41 53 20 4-19-46-19-44 8-44 19 0 26 13 55 102 58 178 79 212 227 370 81 87 147 200 126 221-6 6-19-9-36-44zM2492 25c-6-14-8-25-3-25 8 0 23 41 17 47-1 2-8-8-14-22zM3735 10c-15-6-9-9 25-9 34 0 40 3 25 9-11 5-22 9-25 9-3 0-14-4-25-9z" fill="#ffffff" class="color000 svgShape"></path></g></svg></g></svg>